<?xml version="1.0" encoding="UTF-8" standalone="no"?>
<!-- Created with Inkscape (http://www.inkscape.org/) -->

<svg
   version="1.1"
   id="svg1"
   width="675"
   height="158"
   viewBox="0 0 675 158"
   sodipodi:docname="Scribed-Wall_logo.svg"
   inkscape:version="1.3 (0e150ed6c4, 2023-07-21)"
   xmlns:inkscape="http://www.inkscape.org/namespaces/inkscape"
   xmlns:sodipodi="http://sodipodi.sourceforge.net/DTD/sodipodi-0.dtd"
   xmlns="http://www.w3.org/2000/svg"
   xmlns:svg="http://www.w3.org/2000/svg">
  <defs
     id="defs1" />
  <sodipodi:namedview
     id="namedview1"
     pagecolor="#ffffff"
     bordercolor="#000000"
     borderopacity="0.25"
     inkscape:showpageshadow="2"
     inkscape:pageopacity="0.0"
     inkscape:pagecheckerboard="0"
     inkscape:deskcolor="#d1d1d1"
     inkscape:zoom="2.507872"
     inkscape:cx="337.53716"
     inkscape:cy="79.150768"
     inkscape:window-width="2400"
     inkscape:window-height="1261"
     inkscape:window-x="2391"
     inkscape:window-y="-9"
     inkscape:window-maximized="1"
     inkscape:current-layer="g1" />
  <g
     inkscape:groupmode="layer"
     inkscape:label="Image"
     id="g1">
    <g
       id="g2"
       transform="translate(0.5639093,-1.1278242)">
      <path
         style="fill:#b9b9b9;fill-opacity:1"
         d="M 16.654988,156.17126 C 14.497465,153.78722 14.567668,151.00542 17,142.5 22.271776,124.06556 18.062063,113.19401 8.86832,121.5 3.9510161,125.94249 1,126.15512 1,122.06695 1,115.66466 17.198839,107.14999 49.428139,96.611436 56.808425,94.19818 66.023218,95.13518 59.505744,97.63617 c -0.821841,0.31537 -1.284105,0.913433 -1.027252,1.329029 0.622579,1.007354 -5.809073,3.756111 -11.790378,5.038971 -18.938381,4.06186 -21.152263,7.29448 -20.411856,29.80456 0.625881,19.02824 0.390342,20.27808 -4.2763,22.69129 -3.591577,1.85728 -3.353373,1.87193 -5.34497,-0.32876 z M 65.801242,146.25 c -3.337037,-7.98503 -0.796869,-35.75 3.270705,-35.75 2.40364,0 2.424431,0.0829 2.067828,8.25 -0.404509,9.2642 0.0938,9.80011 5.019886,5.39865 2.820629,-2.52023 3.243882,-3.5944 3.644749,-9.25 0.402259,-5.67523 1.307748,-7.83331 3.307709,-7.88334 1.451454,-0.0363 1.622523,29.37553 0.190787,32.80216 -1.488668,3.56288 -2.644162,3.50558 -3.033931,-0.15045 -1.01296,-9.50157 -1.184185,-9.75092 -5.265809,-7.66864 -3.785843,1.9314 -3.785843,1.9314 -3.421181,8.14619 0.498997,8.50423 -3.162244,12.37111 -5.780743,6.10543 z m 27.600755,-4.58064 c -2.872565,-2.47087 -2.903032,-2.61153 -3.004002,-13.86933 -0.0561,-6.25522 -0.651169,-13.03712 -1.32237,-15.07088 -1.981372,-6.00362 1.535217,-11.34942 4.657245,-7.07979 1.210156,1.65498 1.609279,1.59947 6.79853,-0.94558 3.0321,-1.48708 6.96544,-2.73355 8.74075,-2.76993 1.77532,-0.0364 5.70285,-0.88277 8.72785,-1.88087 3.025,-0.998093 5.62309,-1.707733 5.77354,-1.576976 C 124.63158,99.221756 122.51831,102 121.09301,102 c -0.93115,0 -2.18388,0.49087 -2.78383,1.09082 -0.59994,0.59994 -5.06178,2.42521 -9.91518,4.05614 -11.819223,3.97171 -11.41629,3.46404 -11.291859,14.22688 0.195741,16.93094 1.934033,18.11798 17.499559,11.95005 4.9694,-1.96915 7.34856,-2.33411 12.82083,-1.9667 11.20244,0.75215 9.48517,2.73689 -4.43913,5.13052 -5.21587,0.89662 -11.86257,2.71142 -14.77045,4.03289 -8.449779,3.83996 -11.414877,4.06994 -14.810953,1.14876 z M 194,134.01427 c 0,-0.54215 4.53731,-5.76285 10.08292,-11.60157 12.95732,-13.64217 12.8396,-16.43345 -0.92505,-21.9347 -9.86594,-3.943068 -11.22626,-6.167914 -7.56294,-12.36942 5.61699,-9.508796 24.86656,-10.660385 26.19281,-1.566962 0.79532,5.453079 -7.14097,8.119685 -9.5487,3.208382 -1.44854,-2.954729 -3.12013,-3.468909 -5.03904,-1.55 -3.21888,3.218876 -1.33266,5.058633 9.08183,8.858137 17.32239,6.319713 9.7417,22.155483 -17.18098,35.890413 C 194.53312,135.27883 194,135.39022 194,134.01427 Z M 99.735568,122.40223 c -2.828226,-2.82822 8.585782,-9.68974 16.319402,-9.81039 6.72648,-0.10494 8.44902,1.63022 2.44503,2.46293 -4.34623,0.6028 -7.30523,1.97316 -12.09439,5.60112 -3.03154,2.2965 -5.47907,2.93731 -6.670042,1.74634 z M 243.74925,114.6465 C 234.54944,111.51308 225.74003,100.91999 230.90286,99.199048 231.50629,98.997905 232,97.927765 232,96.820959 c 0,-2.471866 3.05043,-7.818631 4.46561,-7.827282 0.56891,-0.0035 1.7788,-1.314872 2.68864,-2.914211 3.97707,-6.990989 28.7643,-13.497316 32.81705,-8.614052 4.19027,5.04897 -1.3129,12.036891 -6.41478,8.145491 -10.56079,-8.055107 -34.51444,9.638094 -25.30652,18.692495 6.91916,6.80379 18.1036,5.45825 26.43051,-3.17972 3.91533,-4.061592 8.83171,-5.443532 6.69091,-1.880743 -0.52122,0.867433 -0.23091,0.831673 0.93662,-0.115382 2.87714,-2.333813 1.88444,-0.225787 -2.69819,5.729685 -7.95893,10.34323 -16.95432,13.5039 -27.8606,9.78926 z m 38.23094,-7.3965 c -0.0109,-4.2625 -0.47012,-10.865593 -1.02051,-14.673541 -2.32883,-16.112494 3.81866,-22.248346 21.71889,-21.677776 9.50531,0.302982 8.13144,11.624492 -2.24684,18.515278 -6.07805,4.035598 -6.58768,5.531605 -2.87839,8.449333 2.25645,1.774923 7.43132,10.387596 7.44247,12.386706 0.0115,2.06159 -3.75845,0.31958 -5.65803,-2.61445 -5.55273,-8.576543 -12.39999,-8.713336 -12.86992,-0.25711 -0.34387,6.18793 -0.91323,7.62156 -3.02688,7.62156 -1.12898,0 -1.44527,-1.67801 -1.46079,-7.75 z M 295.92013,86.131292 C 303.14037,79.605984 303.63183,77 297.64217,77 c -5.36759,0 -7.89867,2.745211 -8.62634,9.356157 -0.75778,6.884518 -0.96986,6.891425 6.9043,-0.224865 z m 36.45481,21.403398 c -0.30926,-0.80592 0.6456,-5.09228 2.12191,-9.525243 2.85777,-8.581078 3.5223,-19.198681 1.52964,-24.439771 -3.1567,-8.302758 3.13672,-13.721906 18.6872,-16.091199 8.98223,-1.368545 11.28142,5.023951 4.71968,13.12227 -3.10063,3.826712 -3.17102,4.071759 -1.05344,3.666956 14.66914,-2.804183 9.97277,17.11938 -5.22871,22.181935 -6.31766,2.103975 -8.67193,3.510321 -12.66791,7.567302 -5.06985,5.14725 -7.13866,6.04479 -8.10837,3.51775 z M 355.6434,87.865287 c 3.03039,-2.846911 2.98615,-4.675433 -0.1419,-5.864717 -2.98151,-1.133568 -10.05563,0.833875 -9.9015,2.753791 0.055,0.685101 0.1675,2.429518 0.25,3.876481 0.18834,3.303316 5.94095,2.853632 9.7934,-0.765555 z m 7.16996,-4.038275 c -0.17235,-1.745144 -0.94757,-3.381546 -1.72271,-3.63645 -1.04546,-0.343797 -1.20178,0.02361 -0.60545,1.422988 0.44215,1.037548 0.83528,2.67395 0.87364,3.63645 0.0384,0.9625 0.45181,1.75 0.9188,1.75 0.46699,0 0.70807,-1.427845 0.53572,-3.172988 z M 348.4425,73.267391 c 6.58915,-3.979987 8.42689,-11.518491 2.41483,-9.905714 -4.26176,1.143247 -6.74832,3.944545 -7.44584,8.388323 -0.78843,5.022929 -0.7779,5.026105 5.03101,1.517391 z M 321.72896,104.01826 C 319.78102,102.11988 317.00363,88.522029 317.00137,80.872445 317.00051,77.980424 316.43743,75.778002 315.5,75 c -4.21505,-3.498178 0.88231,-9.203629 7.86067,-8.798422 6.15867,0.357611 6.97182,2.26621 3.69882,8.681811 C 325.29327,78.345469 325,80.768777 325,91.901145 c 0,13.587415 -0.36708,14.947195 -3.27104,12.117115 z M 320.50932,76.038298 C 320.39196,71.360401 319,69.251463 319,73.751546 319,76.420259 319.80856,80 320.41135,80 c 0.10855,0 0.15264,-1.782766 0.098,-3.961702 z m 95.86885,20.504826 c -1.06768,-2.782329 0.43779,-4.423981 7.32695,-7.989739 C 437.01263,81.66555 437.956,80.156197 436.87905,67.475626 436.36636,61.439032 435.84634,55.2625 435.72345,53.75 435.60055,52.2375 435.1625,51 434.75,51 434.3375,51 434,50.351558 434,49.559017 c 0,-4.908436 27.22257,-6.710276 30.64602,-2.028434 5.48668,7.503476 -1.48669,19.923777 -15.43969,27.499705 -5.57231,3.025548 -6.65097,4.021736 -6.37894,5.891243 C 443.18326,83.367264 440.50441,87 438.34501,87 437.60526,87 437,86.1 437,85 c 0,-2.362906 -1.26882,-2.585945 -2.98019,-0.523871 -0.67379,0.811871 -4.13042,2.848836 -7.68139,4.526591 -5.33093,2.518744 -6.35051,3.383825 -5.84931,4.962967 0.79725,2.511916 -3.17934,5.005125 -4.11094,2.577437 z M 448.28628,72.25 c 16.44968,-13.588441 13.48251,-26.920967 -5.28561,-23.750113 -4.16017,0.702857 -4.16017,0.702857 -2.08042,2.64044 2.49466,2.324127 2.48328,2.178658 0.47432,6.063553 C 439.77892,60.328196 440.16906,77 441.85782,77 c 0.37305,0 3.26586,-2.1375 6.42846,-4.75 z m -68.63052,20.077621 c -3.22488,-1.689686 -2.98165,-0.07441 -4.9248,-32.706096 -0.28823,-4.840176 2.49465,-7.321376 4.77278,-4.255384 1.33903,1.802127 1.54716,1.7764 6.06738,-0.75 C 388.14555,53.177264 391.22568,52 392.41585,52 c 1.87193,0 6.69354,-1.129528 15.34901,-3.595714 1.6889,-0.481215 2.12884,-0.290835 1.72995,0.748634 -0.63926,1.665882 -7.14149,4.750293 -17.78705,8.43749 -9.30644,3.22338 -9.66876,3.772851 -9.20683,13.962437 0.77056,16.997802 1.76267,17.514817 20.49907,10.682543 4.07209,-1.484896 6.99282,-1.87346 11.25,-1.496659 9.73154,0.861333 6.95489,3.172822 -6.82615,5.682591 -4.44188,0.808944 -10.51688,2.451177 -13.5,3.649406 -8.39196,3.370798 -11.27251,3.826436 -14.26809,2.256893 z M 385,71.212654 c 0,-4.214034 13.80396,-10.478982 20.75,-9.417419 3.43595,0.525116 2.68346,1.900866 -1.46544,2.679205 -4.3147,0.809442 -8.93845,2.99424 -11.78456,5.568404 -3.26038,2.948842 -7.5,3.610116 -7.5,1.16981 z M 536.41464,68.25 C 536.07174,66.7375 535.1824,63.025 534.43833,60 533.69426,56.975 532.58808,51.125 531.98015,47 530.41704,36.393723 529.43002,33.809126 525.48116,29.981743 520.79159,25.43643 521.78897,17 527.0159,17 c 2.46004,0 7.08897,12.560213 8.4764,23 0.40201,3.025 1.05909,6.103592 1.46017,6.841316 1.09016,2.00517 3.41165,-4.254421 2.67151,-7.20337 C 538.7656,36.217913 540.79942,31 542.99084,31 c 2.33088,0 2.9935,1.900366 3.07945,8.831787 0.15537,12.530047 2.19638,11.536034 6.84116,-3.331787 3.09348,-9.90212 5.91652,-14.896059 13.49291,-23.86883 C 571.65363,6.4144162 580.88663,-0.5133703 582.18814,0.78814175 583.54548,2.1454788 581.644,5.5319312 578.29089,7.7289724 569.52028,13.475694 554.40648,40.754109 551.82301,55.5 c -0.61339,3.501085 -3.21727,2.160089 -5.61594,-2.892201 -2.87345,-6.052301 -3.78275,-5.287014 -5.21877,4.392201 -0.612,4.125 -1.33011,8.9625 -1.59582,10.75 -0.59008,3.969613 -2.13251,4.2286 -2.97784,0.5 z m 36.95149,-7.724229 C 571.74428,59.339845 571.738,58.814375 573.26285,51.881544 574.15579,47.821695 575.12773,42.025 575.42269,39 c 1.69999,-17.433885 10.14839,-28.196196 14.32623,-18.25 6.38624,15.203723 4.74639,41.9907 -2.00694,32.783458 -0.41691,-0.568402 -0.48867,-3.307045 -0.15946,-6.085874 0.66199,-5.58786 -0.0819,-6.781867 -4.99328,-8.014542 -2.71392,-0.68115 -2.85141,-0.574249 -2.14737,1.669606 0.81007,2.58183 0.80685,2.465439 0.31582,11.397352 -0.45214,8.224477 -3.13539,11.137955 -7.39156,8.025771 z M 586.08179,34 c 2.31522,0 2.58472,-4.169206 0.51138,-7.91109 -1.33596,-2.41109 -1.33596,-2.41109 -2.95002,0.05227 -2.61169,3.985939 -3.37993,9.355522 -1.21993,8.526653 C 583.38042,34.300527 585.02677,34 586.08179,34 Z m 17.13709,26.737998 c -1.20135,-1.478279 -1.35426,-18.412929 -0.22243,-24.633704 0.58768,-3.22995 0.36347,-5.572927 -0.84541,-8.834645 -1.64518,-4.43894 -1.64518,-4.43894 1.61766,-7.354295 6.97974,-6.236395 10.65137,-3.405364 8.53977,6.584646 -4.1635,19.697601 -1.93849,23.36808 10.89219,17.968273 C 630.76523,41.284714 634,40.450558 634,41.683423 634,43.198005 631.71958,45 629.80288,45 c -0.98841,0 -3.48591,1.518631 -5.55,3.374736 -2.06408,1.856104 -5.15887,3.679447 -6.8773,4.051872 -1.71843,0.372426 -4.19343,1.82279 -5.5,3.223032 -4.25171,4.556528 -7.52521,6.480671 -8.6567,5.088358 z M 642.14829,53.25 c -0.55865,-1.060264 -0.57208,-7.391519 -0.0341,-16.063674 0.58065,-9.359379 0.5415,-14.961127 -0.1131,-16.184259 C 639.27638,15.910873 643.07729,10 649.07584,10 c 3.80186,0 4.37138,1.340026 3.13115,7.367373 -4.82273,23.437873 -3.24116,26.240942 11.29301,20.014933 9.04399,-3.874176 11.55256,-4.295566 9.09501,-1.527779 C 671.54727,37.034537 670.10043,38 669.37981,38 c -0.72062,0 -2.88369,1.381529 -4.80683,3.070063 -1.92313,1.688535 -5.14823,3.526098 -7.16687,4.083474 -2.01865,0.557375 -5.795,3.000846 -8.3919,5.429936 -5.33194,4.98741 -5.5902,5.087709 -6.86592,2.666527 z"
         id="path8" />
      <path
         style="fill:#a3a3a3;fill-opacity:1"
         d="m 17.016927,156.01693 c -2.552955,-2.55296 -2.531312,-4.60723 0.14127,-13.40912 C 22.729023,124.26084 18.340926,113.27252 8.7289656,121.5 2.0734386,127.19688 -2.2549402,124.4077 2.9576335,117.78099 8.9453853,110.1688 61,90.617685 61,95.980948 c 0,0.539521 -1.221097,1.287424 -2.713549,1.662005 -2.149813,0.539569 -2.356388,0.806343 -0.994354,1.284119 1.820306,0.638528 -3.146022,2.707708 -16.976965,7.073328 -14.121059,4.45719 -14.679948,5.53028 -14.071678,27.01836 0.564419,19.93896 0.352276,21.1047 -4.27623,23.49819 -2.723696,1.40848 -3.077538,1.37274 -4.950297,-0.50002 z m 50.442979,-7.78224 c -2.297722,-1.62304 -3.225825,-8.06271 -2.36446,-16.4059 0.472933,-4.58083 0.647255,-9.67879 0.387382,-11.32879 -0.856899,-5.44068 0.765382,-10 3.558167,-10 2.442408,0 2.456574,0.0557 2.09878,8.25 -0.390026,8.93251 -0.316242,9.05803 3.870721,6.58473 C 78.702662,123.15371 80,120.09211 80,113.55994 c 0,-3.88796 0.419418,-5.50691 1.537854,-5.93609 2.016121,-0.77366 2.841868,1.53852 2.052375,5.74688 -0.34624,1.84562 -0.148465,7.66987 0.4395,12.94279 1.286323,11.53584 -1.929982,22.8343 -3.447193,12.10954 -1.196194,-8.45556 -1.114149,-8.35032 -5.359573,-6.8753 C 71.5,132.84126 71.5,132.84126 71.5,139.67063 c 0,8.29111 -1.106364,10.63635 -4.040094,8.56406 z m 25.930826,-6.57541 c -2.866092,-2.4657 -2.89107,-2.58353 -2.930335,-13.82309 -0.02377,-6.80431 -0.592655,-13.05488 -1.423027,-15.63539 -1.725572,-5.36247 1.667675,-10.59718 4.446863,-6.8601 1.529879,2.05717 3.77881,1.68971 8.946987,-1.46187 1.68783,-1.02924 4.6997,-1.87304 6.69305,-1.87509 1.99335,-0.002 5.56214,-0.68746 7.93063,-1.52311 6.67485,-2.355023 7.21412,-0.13957 0.71449,2.93525 -3.0043,1.42127 -5.85941,2.58412 -6.34467,2.58412 -9.93446,0 -14.562089,5.50853 -14.193167,16.89494 0.515847,15.92109 2.158853,16.86968 18.041267,10.41607 5.33564,-2.16806 6.97013,-2.38917 13.10623,-1.77294 8.80475,0.88422 7.26085,2.72009 -3.71688,4.41978 -3.93919,0.60991 -10.76217,2.41657 -15.16217,4.01479 -12.30463,4.46946 -12.812722,4.52266 -16.109268,1.68664 z M 194,134.29909 c 0,-0.50319 4.5,-5.72412 10,-11.60207 12.67806,-13.54928 12.61089,-17.69583 -0.35806,-22.10411 C 191.14113,96.343753 191.07495,87.624573 203.5,81.890043 c 10.26647,-4.738279 23.50209,2.410586 16.15829,8.727461 -3.8957,3.35094 -4.3734,3.226579 -8.13383,-2.117504 -1.80695,-2.567928 -5.02446,-0.920541 -5.02446,2.572561 0,2.010973 1.06188,2.746555 7.27643,5.040502 18.57136,6.855167 15.47999,18.721247 -8.65575,33.224737 C 196.53887,134.49473 194,135.62739 194,134.29909 Z m -94,-13.1662 c 0,-4.82994 20.00228,-12.17429 22.43524,-8.23767 0.65934,1.06684 -1.72258,2.10478 -4.83016,2.10478 -1.22725,0 -5.21579,1.8 -8.86344,4 C 101.28821,123.49538 100,123.80969 100,121.13289 Z m 142.70696,-6.66591 c -9.62267,-3.53163 -14.79665,-11.54354 -10.50335,-16.264402 1.26302,-1.388793 1.73389,-2.200958 1.04639,-1.804811 -2.00943,1.157859 -1.47007,-1.848277 0.864,-4.815571 1.16271,-1.478136 2.36606,-2.435466 2.67413,-2.127399 0.30807,0.308067 1.50571,-1.130735 2.66142,-3.197337 3.9724,-7.103313 29.35365,-14.005346 32.27913,-8.777806 3.35048,5.986976 -1.04642,11.90525 -6.02414,8.108558 -10.93493,-8.340475 -35.18641,10.034305 -25.39009,19.237478 1.27295,1.19587 3.3124,2.17431 4.53212,2.17431 1.21972,0 3.81281,0.66649 5.76244,1.4811 4.50529,1.88243 9.34578,-0.29996 16.11618,-7.2662 4.04777,-4.164849 4.62287,-4.45938 5.73571,-2.937484 0.68027,0.930323 1.52986,1.398492 1.88798,1.040374 C 274.70699,98.959672 275,99.101839 275,99.633716 c 0,9.134394 -21.23907,18.890204 -32.29304,14.833264 z M 281.53125,101.75 c -1.54094,-26.490905 0.0512,-29.510167 16.10481,-30.540425 15.63487,-1.003386 15.62693,9.362958 -0.0154,20.08711 -3.46324,2.374348 -3.3188,5.177844 0.37934,7.362386 1.65,0.974679 3,2.244289 3,2.821349 0,0.57706 0.9,2.7284 2,4.78076 3.16081,5.89739 0.0705,7.17554 -3.50646,1.4503 -4.88938,-7.825783 -14.09695,-9.394418 -13.16326,-2.24254 0.51275,3.92757 -1.09009,9.53106 -2.72629,9.53106 -0.96505,0 -1.50147,-3.42905 -2.07274,-13.25 z m 14.27267,-15.5 c 7.41028,-6.867434 7.9903,-9.25 2.25184,-9.25 -5.70215,0 -8.73401,3.086215 -9.57828,9.75 -0.83585,6.597302 -0.29183,6.560174 7.32644,-0.5 z m 36.8494,21.28894 c -0.30837,-0.80358 0.55164,-4.73136 1.91112,-8.728388 3.52117,-10.352692 3.97513,-16.031294 1.93263,-24.175547 -2.53234,-10.097417 0.1899,-13.209377 14.10123,-16.120007 13.38064,-2.799594 17.24178,4.29299 7.36154,13.522514 C 355.21669,74.6 355.21669,74.6 358.73794,74.6 c 14.06877,0 9.52468,17.365004 -5.67851,21.700128 -5.05377,1.44106 -7.4527,2.887203 -12.02663,7.250002 -5.98284,5.70665 -7.45193,6.40597 -8.37948,3.98881 z m 20.78244,-17.947651 c 4.17717,-1.745334 5.61776,-5.339547 2.93679,-7.327186 -3.14783,-2.33377 -13.53783,0.626892 -11.36936,3.239735 0.67131,0.808881 0.97622,2.107428 0.67759,2.885661 -1.12716,2.937323 2.32199,3.471837 7.75498,1.20179 z M 362.98469,84.25 c -0.0169,-3.027311 -1.44247,-5.958391 -2.24062,-4.606763 C 359.97582,80.944222 361.10308,87 362.1135,87 c 0.48757,0 0.87961,-1.2375 0.87119,-2.75 z M 349.79881,72.627004 c 7.38293,-4.66064 6.53869,-12.370316 -0.93698,-8.556517 C 344.83942,66.122567 343,69.135518 343,73.672088 c 0,2.897602 0.73125,2.785197 6.79881,-1.045084 z M 321.813,103.65402 c -1.93394,-1.47008 -5.28027,-18.562014 -4.44879,-22.72293 0.31339,-1.56823 -0.20828,-3.66897 -1.33919,-5.392948 C 312.83427,70.674121 316.02325,66 322.53254,66 c 6.20753,0 7.38668,1.928273 4.63836,7.585136 C 325.27155,77.494572 325,79.738818 325,91.526751 c 0,13.675709 -0.19147,14.404319 -3.187,12.127269 z m -1.53362,-18.693683 c -0.29336,-1.121815 -0.75683,-1.816223 -1.02992,-1.543128 C 318.70846,83.958202 319.66405,87 320.375,87 c 0.24077,0 0.19774,-0.917848 -0.0956,-2.039663 z M 320.76923,76 c 0,-4.838879 -0.97857,-6.502818 -2.10223,-3.574597 C 318.16375,73.73684 319.65848,81 320.43162,81 c 0.18569,0 0.33761,-2.25 0.33761,-5 z m 95.41122,18.777564 c 0.23259,-1.61767 2.38733,-3.318411 7.91837,-6.25 13.01706,-6.899368 13.80693,-8.153006 13.15724,-20.882595 -0.30053,-5.888513 -0.93109,-10.944126 -1.40124,-11.234696 -1.55725,-0.962436 -0.88609,-4.323173 1.07274,-5.371503 3.46322,-1.853462 5.35727,-0.238 4.5184,3.853814 -2.11158,10.299791 -0.65632,23.25179 2.35921,20.997223 1.0224,-0.764394 3.84768,-2.860125 6.27841,-4.657181 18.23281,-13.479638 6.92699,-29.707856 -14.435,-20.719795 -1.47127,0.619036 -1.77668,0.390832 -1.48737,-1.111398 0.88771,-4.609538 26.34166,-6.120187 29.76621,-1.766574 6.12748,7.789829 0.0891,19.112213 -14.47629,27.144232 -5.82934,3.214557 -6.90828,4.212083 -6.68561,6.181148 C 443.05411,83.512306 440.50147,87 438.34501,87 437.60526,87 437,86.1 437,85 c 0,-2.366197 -0.7706,-2.51718 -2.92126,-0.572364 -0.86831,0.7852 -4.39124,2.822722 -7.82874,4.527828 C 421.10478,91.507649 420,92.492651 420,94.527828 420,96.361027 419.46509,97 417.93045,97 c -1.56779,0 -1.99208,-0.538833 -1.75,-2.222436 z m -37.77546,-3.878117 c -1.56074,-1.720958 -2.03781,-4.386458 -2.63999,-14.75 -0.40425,-6.957196 -0.85425,-14.394761 -1,-16.527922 -0.33116,-4.846754 2.45042,-7.335188 4.74583,-4.245677 1.3546,1.823221 1.51427,1.812208 5.69143,-0.392561 2.36376,-1.247624 7.22274,-2.825677 10.79774,-3.506784 3.575,-0.681107 7.93309,-1.702106 9.68463,-2.268887 2.5948,-0.839648 3.08607,-0.773645 2.65245,0.356363 -0.69132,1.801548 -5.04661,3.944561 -14.33708,7.054544 -12.31595,4.122763 -12.1128,3.865344 -11.57383,14.665583 0.87555,17.544529 1.83207,18.218614 17.07383,12.032341 3.70961,-1.505643 7.71779,-2.374628 10.5,-2.276426 2.475,0.08736 5.7375,0.178674 7.25,0.202925 7.0279,0.112682 1.835,3.100214 -8.25,4.746314 -4.125,0.673293 -10.875,2.524077 -15,4.112852 -8.99254,3.463544 -12.99161,3.668006 -15.59501,0.797335 z m 7.15078,-18.809205 c -2.22063,-3.593054 8.87539,-9.872918 17.69423,-10.014164 5.91571,-0.09475 6.23035,1.474842 0.46885,2.338832 -2.48464,0.372595 -6.78588,2.307256 -10.25,4.610362 -6.35838,4.227342 -7.03316,4.488704 -7.91308,3.06497 z M 536.52667,68.75 c -1.79467,-7.89549 -2.90615,-13.516679 -4.56651,-23.094655 -1.76154,-10.161628 -2.1344,-11.120708 -5.92005,-15.227657 -4.4032,-4.776905 -4.88076,-6.782485 -2.44355,-10.26208 4.0223,-5.742642 7.96881,0.215332 10.99503,16.599024 2.23391,12.094184 2.2857,12.215414 3.94529,9.235368 0.76574,-1.375 1.4082,-4.8074 1.42768,-7.627555 0.0696,-10.068549 4.46041,-9.7771 5.47861,0.363653 1.23479,12.297847 2.88355,12.986329 5.99158,2.501945 2.96827,-10.012913 4.50634,-13.738443 7.82775,-18.960423 6.05394,-9.518113 20.93609,-23.4790277 22.91686,-21.49825728 1.44169,1.44168348 -0.0726,3.89221548 -4.79769,7.76408808 -5.44448,4.4613382 -20.06109,26.2308122 -21.01069,31.2925712 -0.37596,2.004069 -1.50335,5.448311 -2.50531,7.65387 -1.00196,2.20556 -1.83163,4.967508 -1.84371,6.137663 -0.0533,5.166332 -2.97241,4.896987 -5.24582,-0.484035 -3.69429,-8.74414 -4.69916,-6.936461 -7.2857,13.10648 -0.64866,5.026431 -2.10942,6.258615 -2.96377,2.5 z m 35.82064,-9.287311 c -0.32446,-0.845521 0.0976,-4.108021 0.93795,-7.25 0.84033,-3.141979 1.80128,-8.689923 2.13544,-12.328764 1.0889,-11.857736 6.75154,-23.930288 11.19738,-23.872452 5.90942,0.07688 9.76947,36.869401 4.02569,38.371433 -3.45623,0.903824 -4.50547,-3.201029 -2.19528,-8.588436 0.87988,-2.051875 -3.4151,-6.794519 -6.15304,-6.794377 -1.60178,8.2e-5 -1.78958,0.997842 -1.74101,9.25 0.0676,11.495575 -5.28983,18.81497 -8.20713,11.212596 z M 586.08179,34 c 2.17368,0 2.57291,-3.147797 0.94296,-7.4349 -1.36662,-3.594496 -2.55199,-3.203917 -4.41617,1.455136 -2.07853,5.194755 -2.08741,7.377485 -0.0268,6.586753 C 583.45177,34.273145 585.02677,34 586.08179,34 Z m 16.63981,25.716879 c -0.27081,-0.705717 -0.27797,-6.668217 -0.0159,-13.25 C 602.96774,39.885095 603.2094,33.375 603.2427,32 c 0.0333,-1.375 -0.57018,-3.999369 -1.34107,-5.831932 -1.36241,-3.238688 -1.31024,-3.413594 1.86415,-6.25 6.39969,-5.718315 10.83338,-3.357316 8.75338,4.661294 -2.03614,7.849498 -2.9577,20.1873 -1.62759,21.789983 1.63857,1.974366 14.91146,-1.258116 18.55843,-4.519728 1.33315,-1.192283 4.55,-1.060837 4.55,0.18592 0,0.569546 -1.9125,1.861231 -4.25,2.870412 -2.3375,1.009181 -5.10896,2.795087 -6.1588,3.96868 -1.04985,1.173593 -3.57446,2.582319 -5.61025,3.130501 -2.03579,0.548182 -5.74588,2.796284 -8.24465,4.995782 -4.81958,4.242369 -6.22078,4.784888 -7.0147,2.715967 z M 642.20707,52.25 c -0.48066,-0.974335 -0.49341,-7.868348 -0.0288,-15.553775 0.54214,-8.967621 0.48192,-14.462603 -0.17189,-15.684259 -2.73464,-5.109736 1.37544,-10.997464 7.68458,-11.008228 3.13039,-0.00534 3.57951,1.336369 2.43063,7.261347 -4.90321,25.286962 -4.24089,26.452438 11.37839,20.022215 8.67364,-3.57081 11.41494,-4.111859 9.57961,-1.890721 -0.78122,0.945434 -2.98468,2.372571 -4.89659,3.171416 -1.9119,0.798845 -4.54162,2.517874 -5.84381,3.820066 -1.30219,1.302191 -3.70848,2.635793 -5.34731,2.963559 -1.63883,0.327767 -4.94526,2.407738 -7.34763,4.622159 -4.83712,4.458706 -6.16071,4.863802 -7.4372,2.276221 z"
         id="path7" />
      <path
         style="fill:#8c8c8c;fill-opacity:1"
         d="m 15.855876,154.58303 c -0.878621,-1.92837 -0.557394,-4.54794 1.588996,-12.9581 5.131206,-20.10552 1.373611,-28.39016 -9.0478639,-19.94847 -7.317775,5.92761 -11.0839049,1.57004 -4.2004396,-4.86008 C 12.629323,108.93901 60,91.347774 60,96.09362 c 0,0.60149 -0.988402,1.352092 -2.196448,1.668003 -2.096473,0.54824 -2.107853,0.609055 -0.25,1.336096 1.773134,0.693887 1.739745,0.767969 -0.374981,0.831996 -1.276785,0.03866 -2.931414,0.680275 -3.676952,1.425805 -0.745538,0.74554 -3.975895,1.88768 -7.178571,2.53809 -18.753811,3.8086 -21.075945,7.2821 -20.183856,30.19152 0.419867,10.78248 0.278038,17.10113 -0.413343,18.41487 -2.579405,4.90132 -8.058961,6.05777 -9.869973,2.08303 z m 51.098489,-6.61537 C 65.464345,147.04253 64.808236,124.03412 66,114.5 c 1.141709,-9.13367 5.564533,-5.47621 5.139349,4.25 -0.390442,8.93149 0.276873,9.89345 4.493611,6.47776 C 78.87762,122.59949 80,119.65691 80,113.77855 c 0,-4.70977 0.250662,-5.37182 2.086183,-5.51009 1.922444,-0.14481 2.036307,0.2113 1.45072,4.5372 -0.349505,2.58189 -0.184089,8.62667 0.367589,13.43285 0.848483,7.39192 0.753186,9.31816 -0.618417,12.5 -1.760593,4.08423 -1.683881,4.21179 -3.833128,-6.374 C 78.149633,125.94523 71.5,132.31723 71.5,139.9854 c 0,7.49605 -1.391938,9.94032 -4.545635,7.98226 z m 27.334498,-5.47478 c -3.083917,-2.16439 -4.187033,-7.10379 -3.618479,-16.20239 0.339208,-5.42837 0.01753,-9.29822 -1.060921,-12.76312 -1.94868,-6.26082 1.823045,-13.775763 4.028911,-8.02737 0.810907,2.11319 2.747834,1.87552 8.149476,-1 2.58293,-1.375 6.33236,-2.5 8.33207,-2.5 1.99971,0 5.17699,-0.64394 7.06063,-1.43097 1.9217,-0.80294 3.99655,-1.077608 4.72754,-0.625833 1.58679,0.980693 -3.00293,3.513983 -10.40809,5.744733 -14.729635,4.4372 -14.69709,4.39801 -14.298066,17.21938 0.495946,15.93563 2.332915,16.99341 18.203416,10.48208 5.29056,-2.1706 6.99702,-2.41263 12.93417,-1.83446 9.07834,0.88405 7.54433,2.20834 -5.37756,4.64237 -5.58429,1.05189 -12.53584,2.96621 -15.44788,4.25405 -7.690422,3.40107 -10.639448,3.8563 -13.225217,2.04153 z M 194,134.37225 c 0,-0.34526 4.23511,-5.04013 9.41136,-10.43304 12.79214,-13.32758 13.51176,-17.55839 3.73311,-21.94774 C 193.49148,95.863038 192.51766,94.799143 195.5,89.269909 c 5.22526,-9.687601 22.64326,-12.156848 25.89935,-3.671601 2.11052,5.499932 -5.8525,8.382779 -9.3987,3.402604 C 209.468,85.444127 206,86.315998 206,90.509504 c 0,2.68354 2.5502,4.390854 9.7813,6.548409 9.30136,2.77526 12.13348,10.746937 6.4687,18.207647 -5.18765,6.83231 -28.25,22.43037 -28.25,19.10669 z m 23.54112,-16.43878 c 1.07627,-1.74144 -0.14952,-2.11024 -1.52106,-0.45764 -0.78875,0.95039 -0.86462,1.52417 -0.20152,1.52417 0.58488,0 1.36004,-0.47994 1.72258,-1.06653 z M 100,121.21129 c 0,-4.31491 17.07004,-10.95036 21.61996,-8.4041 1.47523,0.82558 0.93722,1.13667 -2.98234,1.72444 -3.00921,0.45126 -6.93404,2.15405 -10.58604,4.59276 -6.45346,4.30946 -8.05158,4.72368 -8.05158,2.0869 z m 142.8896,-6.87412 C 233.22018,111.10854 227.97409,102.95501 232.37805,98 c 1.22208,-1.375 2.64947,-3.19625 3.17196,-4.047222 0.52249,-0.850972 -0.0603,-0.400972 -1.29504,1 C 233.0202,96.35375 232.00938,97.05 232.00871,96.5 c -0.002,-1.73112 3.98468,-7.62212 4.81223,-7.110665 0.43457,0.268581 1.61907,-1.050918 2.63222,-2.93222 2.47762,-4.600657 4.61013,-5.825011 14.50303,-8.326715 14.35048,-3.628933 18.05139,-2.966576 18.0285,3.226589 -0.0232,6.28098 -1.22879,7.576193 -4.68338,5.03159 -7.45621,-5.492147 -10.22347,-5.241946 -20.97863,1.896771 -10.2186,6.782585 -11.32078,18.54169 -1.75823,18.75854 1.06455,0.0241 3.69586,0.67115 5.84734,1.43779 4.87472,1.73701 9.38313,-0.22397 16.20974,-7.05058 4.829,-4.828997 5.37847,-5.136956 5.37847,-3.014433 0,0.779166 0.5625,1.613413 1.25,1.853893 2.04407,0.71497 -6.36823,9.9257 -11.83299,12.95608 -5.68345,3.15166 -11.39005,3.49371 -18.52741,1.11053 z m 38.7117,-15.906506 c -0.98164,-23.243734 1.54947,-27.220073 17.42619,-27.37628 12.8509,-0.126437 13.59103,8.993142 1.45735,17.956815 -6.00114,4.433305 -6.8317,6.876286 -3.15647,9.28439 3.51997,2.306371 7.92781,11.668871 5.86615,12.460011 -0.91327,0.35045 -1.7651,0.004 -2.0282,-0.82569 -2.69277,-8.48824 -15.49924,-12.267009 -15.01324,-4.42991 0.27196,4.38542 -1.11814,9.5 -2.58201,9.5 -0.94743,0 -1.44775,-4.20857 -1.96977,-16.569336 z M 297.30111,85.458932 C 303.88513,81.33161 303.90163,77 297.33333,77 c -5.63104,0 -7.91015,2.287664 -8.81203,8.845112 -0.94602,6.878409 0.10576,8.251319 3.38112,4.413445 1.42867,-1.674032 3.85808,-3.833863 5.39869,-4.799625 z M 333,106.17515 c 0,-1.55366 1.125,-6.13248 2.5,-10.17515 2.84275,-8.358031 3.11202,-14.111071 1.02714,-21.945239 -1.823,-6.850135 -0.66873,-9.753323 4.97286,-12.507594 16.60459,-8.106499 27.75038,-2.143538 17.15857,9.179777 -4.46471,4.773056 -4.46471,4.773056 -0.20449,4.433724 12.1246,-0.965741 11.11486,14.93274 -1.23252,19.406299 -10.82854,3.92327 -14.89588,6.234023 -18.10502,10.285883 -3.87142,4.88807 -6.11654,5.37343 -6.11654,1.3223 z m 20.97879,-16.664183 c 3.7284,-1.928028 4.90958,-5.388206 2.45263,-7.184771 -3.78112,-2.764827 -13.25663,0.263374 -11.4408,3.656276 0.57001,1.065079 0.97702,2.292237 0.90446,2.727018 -0.0726,0.43478 -0.0786,1.12801 -0.0135,1.54051 0.20099,1.272936 5.06497,0.829001 8.09721,-0.739033 z m 8.82399,-6.388209 c -0.41649,-4.983351 -2.25145,-4.581453 -2.27979,0.499326 -0.0166,2.981976 0.33734,3.983978 1.27979,3.622758 0.82372,-0.315714 1.19144,-1.83149 1,-4.122084 z M 352.16006,71.261489 c 5.36759,-4.55478 2.24346,-10.910065 -3.59068,-7.304368 C 344.21213,66.650051 343,68.730419 343,73.515818 c 0,3.786109 2.87572,3.078382 9.16006,-2.254329 z m -30.28211,32.391221 c -1.90923,-1.39607 -5.27563,-19.565585 -4.38032,-23.641935 0.39328,-1.79059 0.0741,-3.121324 -0.95317,-3.973878 C 312.28858,72.504828 316.16226,66 322.52152,66 c 6.00293,0 7.34891,2.373492 4.50606,7.945947 C 325.29906,77.334127 325,79.834917 325,90.901145 c 0,13.319905 -0.35604,14.774115 -3.12205,12.751565 z m -1.786,-19.738392 C 319.12677,81.5 319.12677,81.5 319.06339,84.083333 c -0.0349,1.420834 0.26473,2.911459 0.66578,3.3125 1.18747,1.187475 1.40288,-0.879766 0.36278,-3.481515 z m 0.41286,-12.742843 c -1.11408,-1.114077 -2.43174,2.264925 -1.87968,4.820217 1.11263,5.149919 1.83011,5.366427 2.15676,0.650822 0.18506,-2.671617 0.0604,-5.133585 -0.27708,-5.471039 z M 416,95.2 c 0,-1.854793 1.78682,-4.2 3.2,-4.2 0.44,0 0.8,1.35 0.8,3 0,2.333333 -0.44444,3 -2,3 -1.25926,0 -2,-0.666667 -2,-1.8 z m -37.59501,-4.301157 c -1.57194,-1.733807 -2.03523,-4.399991 -2.64995,-15.25 -0.40972,-7.231863 -0.85972,-14.668157 -1,-16.525097 -0.33721,-4.464012 2.59441,-6.652105 4.85512,-3.623746 1.47952,1.981899 1.53782,1.975111 6.44196,-0.75 2.72191,-1.5125 6.22717,-2.75 7.78947,-2.75 1.5623,0 5.02857,-0.658498 7.70282,-1.463328 2.67425,-0.80483 5.10154,-1.224054 5.39399,-0.931607 0.79706,0.797063 -4.07942,4.314237 -6.9384,5.004336 -16.2538,3.923334 -18.01122,5.598893 -17.58438,16.765356 0.66947,17.513767 1.72447,18.225457 17.75101,11.974591 5.8344,-2.275605 7.50203,-2.510735 13.35875,-1.883533 8.75618,0.937708 7.39013,2.07316 -5.43414,4.5168 -5.65739,1.078004 -12.77168,3.097917 -15.80954,4.488696 -6.81337,3.119261 -11.31067,3.25782 -13.87671,0.427532 z m 47.95843,-3.34388 c 10.498,-5.142759 15.8925,-23.044664 9.41887,-31.256975 -1.77714,-2.25444 0.13041,-5.444221 3.05355,-5.106127 2.89858,0.335252 4.27879,4.093511 2.24882,6.123474 C 439.17361,59.226388 440.1907,77 442.21112,77 c 5.65377,0 18.45594,-16.630744 17.34808,-22.536148 -1.27913,-6.818344 -12.35078,-8.636434 -23.91062,-3.926395 -1.45448,0.592623 -1.77521,0.358618 -1.49596,-1.091423 0.43373,-2.252212 9.79813,-4.290505 20.14283,-4.384372 17.72764,-0.16086 15.53139,17.467367 -3.5831,28.759808 -7.15131,4.224847 -8.21235,5.210986 -8.21235,7.632609 0,3.86267 -4.31848,6.956076 -5.16922,3.702813 -0.69731,-2.666489 -0.0249,-2.797368 -6.9008,1.343108 -3.19678,1.925 -6.5138,3.485928 -7.37115,3.468728 -0.85736,-0.0172 0.62971,-1.103394 3.30459,-2.413765 z M 385.44594,71.912521 c -1.70388,-2.756931 8.32475,-8.826941 15.87014,-9.605695 3.4989,-0.361118 5.65622,-0.16066 6.10618,0.567386 C 407.86956,63.597959 407.19269,64 405.5269,64 c -3.25727,0 -8.99564,2.368479 -12.97307,5.354556 -3.9285,2.949343 -6.33154,3.814138 -7.10789,2.557965 z M 535.5828,63.727548 c -0.90983,-4.089486 -2.468,-12.212223 -3.46261,-18.050526 -1.70423,-10.003686 -2.04776,-10.874785 -5.96429,-15.123716 -4.51687,-4.900225 -5.00766,-6.892231 -2.55934,-10.387698 4.13672,-5.906006 8.82238,2.180909 11.5365,19.910731 C 535.8002,44.434353 536.70235,48 537.13784,48 538.7037,48 540,44.040168 540,39.256871 c 0,-11.325838 4.06964,-10.591019 5.5,0.993086 1.30545,10.57253 7.5,7.14231 7.5,-4.153113 0,-6.677268 14.50652,-26.2211505 24.63541,-33.1900116 5.96436,-4.1035853 6.65646,0.1076956 0.75718,4.6072919 -9.87173,7.5295377 -23.44253,31.0435497 -26.24536,45.4751107 -1.02313,5.268062 -3.57646,5.072168 -5.67996,-0.435771 -3.1732,-8.308903 -4.60753,-6.450449 -6.51893,8.446536 -1.43094,11.152391 -2.3618,11.733985 -4.36554,2.727548 z m 37.53029,-3.636493 c -0.85215,-0.539657 -1.1696,-1.786889 -0.82332,-3.234687 0.30998,-1.296003 1.00509,-4.156368 1.54469,-6.356368 0.5396,-2.2 1.48015,-7.900636 2.09012,-12.668079 C 577.39771,26.317906 582.47537,16 586.66852,16 c 1.0483,0 4.90948,9.776458 6.31915,16 1.13218,4.998462 0.0731,21.115352 -1.37587,20.937934 -0.4885,-0.05982 -1.22764,0.440475 -1.64251,1.111755 -1.53924,2.49055 -3.19485,-2.836192 -2.0035,-6.446035 1.33849,-4.055654 0.67282,-5.991656 -2.56785,-7.468204 -4.66084,-2.123618 -4.89861,-1.728799 -4.88745,8.115426 0.0138,12.205454 -1.92369,15.306636 -7.3974,11.840179 z M 582.5,35 c 0.33992,-0.55 1.71648,-1 3.05902,-1 2.71464,0 3.45355,-4.239476 1.4058,-8.065741 -1.90562,-3.560675 -3.46942,-1.75494 -5.90256,6.815741 -0.86524,3.047765 0.0548,4.487611 1.43774,2.25 z m 20.20479,24.673077 c -0.28005,-0.729807 -0.13526,-7.724208 0.32176,-15.543113 0.72668,-12.432391 0.62199,-14.580271 -0.83434,-17.117779 -2.08622,-3.635027 0.51159,-7.922186 5.70256,-9.410939 4.79169,-1.374237 5.63063,0.0508 4.22779,7.181343 -2.22488,11.308817 -2.596,21.821759 -0.79473,22.512968 2.02697,0.777822 11.51835,-1.666273 16.66283,-4.290793 5.06869,-2.585852 6.84689,-2.58773 4.50934,-0.0048 -0.99549,1.1 -2.39957,2 -3.12019,2 -0.72062,0 -2.88369,1.381529 -4.80683,3.070063 -1.92313,1.688535 -5.1359,3.522696 -7.13949,4.075913 -2.00359,0.553217 -5.5586,2.771689 -7.90002,4.929937 -4.52375,4.16985 -6.00849,4.734543 -6.82868,2.597164 z m 39.58847,-7.113542 c -0.44337,-0.792256 -0.45769,-7.879756 -0.0318,-15.75 0.5511,-10.184592 0.44406,-14.935922 -0.37132,-16.482488 -2.5679,-4.870696 4.4513,-12.5279147 8.87483,-9.681501 1.88149,1.210686 1.88289,1.293008 0.20986,12.354454 -2.17975,14.411715 -2.21296,15.008121 -0.9223,16.563273 1.69952,2.047793 15.58282,-1.329863 19.39749,-4.719197 2.28567,-2.030818 5.00223,-1.001264 3.05,1.155924 -0.99549,1.1 -2.59765,2 -3.56037,2 -0.96272,0 -3.63556,1.575 -5.93963,3.5 -2.30407,1.925 -5.06593,3.5 -6.13745,3.5 -1.07153,0 -4.11312,2.025 -6.7591,4.5 -5.13163,4.800047 -6.52967,5.347707 -7.81019,3.059535 z"
         id="path6" />
      <path
         style="fill:#767676;fill-opacity:1"
         d="m 15.97514,154.43461 c -0.73796,-1.94098 -0.345417,-5.00477 1.612767,-12.58762 5.135976,-19.8885 1.53451,-28.75407 -8.4686915,-20.84699 -5.3087089,4.19629 -6.5785483,4.68383 -7.6565182,2.93964 -1.26963788,-2.05431 1.6331677,-6.49371 6.3089113,-9.64851 C 16.640148,108.30738 48.737051,96.129704 57.25,95.518856 c 3.275285,-0.235019 3.684744,1.423942 0.553552,2.242767 -2.096473,0.54824 -2.107853,0.609055 -0.25,1.336096 1.644187,0.643426 1.519405,0.772625 -0.803552,0.831996 -1.5125,0.03866 -2.75,0.465575 -2.75,0.948715 0,0.48313 -2.972018,1.62497 -6.604485,2.53742 -21.671558,5.44372 -25.29082,12.72706 -20.938174,42.13562 1.257061,8.49331 -7.733619,16.11246 -10.482201,8.88314 z m 50.620419,-7.27999 c -2.889186,-4.6748 -1.033522,-36.52141 2.154441,-36.97417 2.553878,-0.36271 2.538185,-0.4289 2.268834,9.56955 -0.225626,8.3754 0.773362,9.11482 5.875411,4.34879 2.634833,-2.4613 3.110577,-3.63643 3.137558,-7.75 C 80.06086,111.91877 81.656943,108 83.432199,108 c 0.391442,0 0.436074,2.3625 0.09918,5.25 -0.336893,2.8875 -0.231635,8.98931 0.233907,13.55957 1.123691,11.03138 -1.892507,20.25932 -3.244756,9.92721 -0.826019,-6.31133 -1.534429,-7.29002 -4.229855,-5.84366 -0.984872,0.52849 -2.639045,1.22797 -3.67594,1.5544 -1.654715,0.52094 -1.825941,1.35532 -1.400166,6.823 0.614117,7.88632 -1.931861,12.232 -4.619012,7.8841 z m 25.961145,-6.37713 C 91.384296,139.10365 91,135.92543 91,127.90322 c 0,-6.87143 -0.527826,-12.14779 -1.487245,-14.86707 -1.069219,-3.03049 -1.199867,-4.75227 -0.464816,-6.12572 1.219504,-2.27867 4.671089,-2.54172 5.128737,-0.39088 0.264534,1.24326 1.414301,0.97622 6.323324,-1.46861 3.3,-1.6435 7.62035,-3.0023 9.60078,-3.01956 1.98042,-0.0173 5.00836,-0.52207 6.72875,-1.1218 1.72038,-0.59973 3.70003,-0.89576 4.39922,-0.65785 1.72985,0.5886 -4.98139,3.83762 -15.08312,7.30198 -10.104351,3.46527 -10.294927,3.81862 -9.260684,17.17052 1.098612,14.18288 1.8894,14.60966 17.115054,9.23683 7.23739,-2.55393 9.36548,-2.90189 14.32647,-2.34245 8.07664,0.91077 5.83662,2.61757 -6.16504,4.69748 -5.13621,0.89012 -11.82809,2.75813 -14.87084,4.15115 -7.06661,3.2352 -12.603509,3.35179 -14.733886,0.31025 z M 194,134.47543 c 0,-0.30705 4.5,-5.28995 10,-11.07312 13.44173,-14.13377 13.44573,-17.69668 0.0258,-22.96181 -9.18539,-3.603768 -10.60199,-5.164543 -9.02483,-9.943386 3.39234,-10.278873 20.1555,-13.513386 25.65764,-4.950735 3.47822,5.412931 -4.88681,8.750592 -8.65794,3.454533 -1.71518,-2.40875 -2.49279,-2.807897 -3.95045,-2.02778 -5.19165,2.778489 -2.8025,6.794038 5.62237,9.449743 16.51582,5.206155 14.63573,17.398275 -4.67257,30.300975 -5.29493,3.53831 -15,8.55362 -15,7.75158 z m 23.77083,-17.28793 c 0.59996,-1.79986 -1.467,-1.42165 -2.16452,0.39606 -0.37373,0.97391 -0.15024,1.43108 0.58051,1.1875 0.6535,-0.21783 1.3663,-0.93043 1.58401,-1.58356 z M 100,121.50627 c 0,-2.45724 7.76034,-7.31472 13.63416,-8.53412 6.48528,-1.34634 10.99538,-0.27677 5.36584,1.2725 -6.34499,1.74618 -9.01991,2.98972 -12.66916,5.88978 -3.9723,3.15679 -6.33084,3.66786 -6.33084,1.37184 z m 142.35603,-7.58871 c -9.53725,-3.66776 -13.949,-11.24683 -9.37346,-16.102931 1.1995,-1.273046 2.61791,-3.214629 3.15203,-4.314629 0.53412,-1.1 -0.17543,-0.65 -1.57677,1 -2.88446,3.396286 -3.28152,2.800144 -1.03215,-1.54966 C 234.3648,91.327653 235.7148,90 236.52568,90 237.33656,90 238,89.551296 238,89.002881 c 0,-2.509377 7.3154,-8.969237 10.84082,-9.572983 2.01255,-0.344659 5.87836,-1.257383 8.59068,-2.028275 C 267.82246,74.448324 272,75.789157 272,82.077555 c 0,5.642147 -1.96408,6.52714 -6.49488,2.926518 -4.41513,-3.508706 -6.44036,-3.67019 -12.35717,-0.985312 -15.65712,7.104748 -20.76084,19.553869 -9.40563,22.942409 2.06673,0.61673 5.3738,1.60124 7.34905,2.18779 4.51644,1.34115 7.98011,-0.28372 14.97327,-7.02423 C 269.75395,98.56871 271,97.82621 271,99.183838 c 0,0.998892 0.3375,1.703662 0.75,1.566162 2.06101,-0.687 1.41135,1.46574 -1.55705,5.15953 -7.39964,9.20785 -17.30637,12.05779 -27.83692,8.00803 z m 39.28552,-15.229558 c -0.93545,-22.822899 0.91908,-26.146345 15.28606,-27.393648 14.12064,-1.225917 16.19089,8.908001 3.57239,17.486866 -7.00745,4.76411 -7.50469,6.01666 -3.66203,9.224653 3.53678,2.952637 8.40338,11.726937 6.98906,12.601027 -0.50615,0.31282 -2.68385,-1.43478 -4.83933,-3.88354 C 292.01843,98.805859 286,97.934793 286,104.84362 c 0,17.64086 -3.59098,12.56919 -4.35845,-6.155618 z m 14.67513,-12.247671 c 7.3576,-7.059241 7.85707,-8.76167 2.71794,-9.26401 C 291.43452,76.433428 288,80.103547 288,88.967881 c 0,5.258411 0.29512,5.168719 8.31668,-2.52755 z m 37.06798,21.119689 c -0.36021,-0.93868 0.5887,-5.76079 2.10868,-10.715804 2.83998,-9.258125 2.91797,-11.638457 0.87305,-26.64415 -0.77009,-5.65088 1.05436,-7.631925 9.40359,-10.21074 16.34966,-5.049894 22.65506,0.452162 12.48002,10.88998 -4.75,4.872672 -4.75,4.872672 -0.5659,4.374058 15.33445,-1.827385 11.32867,15.81429 -4.69605,20.681646 -6.04863,1.837217 -8.28964,3.164874 -13.12146,7.77365 -4.81449,4.59225 -5.94082,5.26148 -6.48193,3.85136 z m 21.98048,-18.6326 c 5.88451,-4.628759 1.32542,-9.220634 -6.87518,-6.924609 -3.60352,1.008924 -4.44512,1.63192 -3.90622,2.891591 0.37779,0.883079 0.63104,2.618098 0.56277,3.855598 -0.17008,3.083378 6.37973,3.197099 10.21863,0.17742 z m 7.60696,-2.393798 c 0.84705,-1.020641 0.93493,-2.312518 0.28911,-4.25 -1.36819,-4.104548 -2.71197,-3.38518 -2.73822,1.465848 -0.0245,4.530236 0.50264,5.129501 2.44911,2.784152 z M 348.45415,73.926266 c 9.07112,-6.122026 9.12665,-15.538511 0.0586,-9.934137 -4.2835,2.647349 -5.51273,4.752764 -5.51273,9.44213 0,4.310623 -0.17992,4.294393 5.45415,0.492007 z M 321.8707,103.64741 c -1.83914,-1.34482 -5.06817,-19.47709 -4.222,-23.708229 0.32536,-1.626946 -0.0642,-3.039138 -1.06829,-3.872444 C 313.40278,73.42954 316.2033,66 320.375,66 c 7.32723,0 9.46999,3.148548 6.125,9 -1.02029,1.784814 -1.44365,6.075929 -1.47988,15 -0.0548,13.50974 -0.52882,15.56363 -3.14942,13.64741 z m -1.01255,-24.233818 c 0.12166,-6.516518 -0.14326,-8.483052 -1.09892,-8.157659 C 318.07006,71.831072 318.69649,88 320.40794,88 c 0.15945,0 0.36204,-3.863884 0.45021,-8.586408 z M 416.5454,96.073453 C 415.76286,94.807276 417.68111,91 419.10161,91 c 1.3954,0 0.69894,5.247191 -0.75997,5.725668 -0.6371,0.208947 -1.44541,-0.08455 -1.79624,-0.652215 z m -38.14041,-5.17754 c -1.58819,-1.754178 -2.00911,-4.290248 -2.53106,-15.25 -0.34434,-7.230252 -0.94729,-14.112408 -1.3399,-15.29368 -1.48168,-4.458111 1.99149,-7.683854 5.01636,-4.658987 1.59099,1.590995 2.00388,1.530607 6.83728,-1 C 389.21689,53.211961 392.93049,52 394.64012,52 c 1.70964,0 4.95333,-0.650919 7.20821,-1.446487 2.42684,-0.85624 4.33544,-1.065187 4.67729,-0.512056 0.67264,1.08835 -4.86308,3.731485 -15.74749,7.518937 -9.01734,3.137767 -8.92453,2.965442 -8.33849,15.482253 0.73879,15.779613 2.39665,16.7344 17.96571,10.346747 5.30875,-2.178064 6.98631,-2.413644 13.00942,-1.826911 8.62285,0.839985 7.16825,1.953454 -5.84415,4.473575 -5.02011,0.97225 -12.00476,2.936875 -15.52145,4.365834 -7.74763,3.148144 -11.13032,3.270622 -13.64418,0.494021 z M 425,88.606989 c 0,-0.216156 0.69837,-0.661002 1.55194,-0.988546 0.88992,-0.341496 1.29132,-0.173849 0.94098,0.393011 C 426.90566,88.961658 425,89.416902 425,88.606989 Z m 8.51921,-5.731457 c 4.57936,-4.221112 5.8451,-19.167703 2.25186,-26.591443 -1.35179,-2.792854 0.59995,-5.516904 3.64142,-5.082346 1.68691,0.24102 2.0173,0.873969 1.72167,3.298257 -0.97084,7.961304 -0.6276,21.757155 0.55259,22.210035 C 445.70302,78.251225 460,61.791072 460,55.625933 460,49.164799 442.63486,44.90482 436.62856,49.892501 434.61357,51.565757 433.24165,50.618688 434.85845,48.67056 436.2201,47.029866 447.62855,45 455.48808,45 c 16.75208,0 12.82143,19.878714 -5.78842,29.274142 -6.05312,3.055996 -8.12673,4.993655 -7.42933,6.942236 C 443.00189,83.26038 441.10879,86 438.96482,86 437.88417,86 437,85.325 437,84.5 c 0,-2.030961 -1.2397,-1.885895 -4.27287,0.5 -4.35286,3.423962 -3.89501,2.19594 0.79208,-2.124468 z M 385.44594,71.912521 c -1.69514,-2.742783 7.96958,-8.591295 15.69825,-9.499648 3.7124,-0.43632 5.81976,-0.280213 6.28048,0.465236 0.44869,0.725994 -0.29789,1.129641 -2.11565,1.143853 -3.25177,0.02542 -10.8982,3.287481 -13.80902,5.891093 -2.64438,2.365291 -5.2883,3.238496 -6.05406,1.999466 z M 535.57244,62.75 c -0.90451,-3.9875 -2.32834,-11.3 -3.16407,-16.25 -2.03315,-12.042322 -1.96993,-11.880476 -6.47033,-16.564483 -4.29618,-4.471466 -4.75159,-6.328999 -2.38134,-9.713011 4.06495,-5.803519 7.82082,0.178296 10.94398,17.430003 0.88094,4.86612 1.83621,9.522491 2.12283,10.347491 0.96672,2.782636 3.30354,-3.203662 3.34105,-8.55887 0.0613,-8.74954 4.97428,-11.770909 5.09307,-3.132113 0.22761,16.552231 3.88053,16.277603 8.38559,-0.630431 2.88507,-10.828008 14.33697,-26.2500523 24.52929,-33.0331153 6.12219,-4.0743653 5.36855,0.2056022 -1.08252,6.1476939 C 571.68909,13.583724 559.34457,31.051598 557.30962,36.5 c -2.35848,6.314617 -4.48934,13.135421 -5.15133,16.489235 -1.02365,5.186087 -3.73067,5.17006 -5.28904,-0.03131 -2.71231,-9.052867 -5.21854,-6.43319 -6.88865,7.200466 -1.43885,11.745745 -2.22661,12.208883 -4.40816,2.591612 z m 37.49957,-3.163232 c -1.01431,-1.222171 -0.96535,-2.4378 0.25375,-6.300559 0.8308,-2.632415 1.80112,-8.063794 2.15625,-12.069731 1.06904,-12.058861 7.02009,-25.238547 11.38435,-25.21273 2.38223,0.01409 7.35264,18.863739 6.5569,24.866192 -0.33759,2.546533 -0.68343,6.43006 -0.76853,8.63006 -0.10078,2.60525 -0.59059,3.912828 -1.40473,3.75 -0.6875,-0.1375 -1.25,0.226558 -1.25,0.809017 0,0.582459 -0.50485,0.747002 -1.12189,0.36565 -0.73003,-0.451182 -0.9088,-2.506418 -0.51183,-5.884062 0.72689,-6.184721 -0.44078,-8.233449 -5.22911,-9.1747 -3.36283,-0.661037 -3.36283,-0.661037 -2.80312,3.236529 1.7887,12.455632 -2.56667,22.641902 -7.26204,16.984334 z M 584.5,34.57534 c 3.55968,-1.241035 3.96127,-1.70722 3.6482,-4.234944 -0.82102,-6.628728 -3.17268,-7.972261 -5.4093,-3.090396 -1.44193,3.147294 -3.05503,8.765558 -2.50795,8.734944 0.14798,-0.0083 2.06905,-0.642603 4.26905,-1.409604 z M 603.2381,59.75 c -0.66011,-0.819569 -0.71561,-6.199794 -0.16117,-15.624534 0.70482,-11.980988 0.59726,-14.854841 -0.646,-17.259031 -1.83846,-3.555182 -0.71102,-6.153116 3.64869,-8.40761 4.49539,-2.324653 7.27462,-1.094127 6.52724,2.889983 -5.03922,26.863034 -3.23936,29.913926 13.28146,22.513002 7.5425,-3.37886 9.06973,-3.577929 6.61168,-0.86181 -0.99549,1.1 -2.53994,2 -3.43213,2 -0.89218,0 -3.12377,1.371516 -4.95908,3.047813 -1.83531,1.676298 -4.65346,3.311122 -6.26257,3.632942 -1.6091,0.321821 -5.11139,2.550305 -7.78286,4.952187 -5.40934,4.863464 -5.41615,4.866571 -6.82526,3.117058 z m 39.42494,-6.5 c -0.75489,-1.244333 -0.55694,-19.158729 0.26945,-24.386485 0.54667,-3.458222 0.37752,-5.639578 -0.58051,-7.486189 -1.91161,-3.68463 -1.68722,-5.715776 0.89802,-8.128882 5.44292,-5.0805091 10.8204,-3.2996646 8.94669,2.962854 -7.35924,24.596944 -3.42467,28.244146 19.55331,18.125194 0.6875,-0.302758 1.25,-0.02936 1.25,0.607546 0,0.636908 -1.6875,1.862745 -3.75,2.724081 -2.0625,0.861337 -5.22816,2.863375 -7.0348,4.448974 C 660.40857,43.702692 658.06109,45 656.99858,45 c -1.0625,0 -4.21186,2.025 -6.99858,4.5 -5.02453,4.462497 -6.45971,5.196033 -7.33696,3.75 z"
         id="path5" />
      <path
         style="fill:#606060;fill-opacity:1"
         d="m 17.2,155.8 c -1.763597,-1.7636 -1.470056,-6.79332 0.900819,-15.43524 4.908222,-17.89062 0.231602,-27.38834 -9.5185952,-19.33124 -7.112225,5.8772 -10.5493424,3.41543 -4.6354875,-3.32007 C 9.6185093,111.25365 47.308429,95.906704 57.153907,96.048032 60.5,96.096063 60.5,96.096063 57,97.860886 c -1.925,0.970653 -3.397446,2.269204 -3.272103,2.885664 0.126814,0.62369 -2.312692,1.64055 -5.5,2.29257 -20.39211,4.17156 -23.803795,8.57924 -22.790136,29.4434 0.963961,19.84122 0.979017,19.67208 -1.982176,22.26748 -2.888962,2.53209 -4.502637,2.80295 -6.255585,1.05 z m 49.109017,-9.05 c -0.87177,-1.34696 -0.598675,-32.06744 0.311644,-35.05687 1.572518,-5.16405 3.879339,-1.11148 3.879339,6.81514 0,9.31221 1.235802,10.40923 6.347243,5.63443 2.684926,-2.5081 3.157476,-3.66462 3.18456,-7.79391 0.0231,-3.52246 2.865304,-11.41552 2.985105,-8.28992 1.093003,28.51634 -0.349811,45.08892 -2.496709,28.67791 -0.893083,-6.82677 -0.986939,-6.91323 -5.869733,-5.40757 C 70.853631,132.5 70.853631,132.5 71.037733,139 c 0.251215,8.86953 0.22253,9 -1.978716,9 -1.067541,0 -2.305041,-0.5625 -2.75,-1.25 z m 27.132113,-5.1671 c -1.677879,-1.22491 -2.043967,-3.22527 -2.699419,-14.75 -0.417058,-7.33309 -0.867058,-15.1329 -1,-17.3329 -0.209948,-3.47437 0.05396,-4.04199 2.008289,-4.31955 1.54713,-0.21973 2.25,0.19181 2.25,1.31739 0,1.95472 2.716893,1.35395 7.80109,-1.72499 1.8156,-1.09952 5.61044,-2.20144 8.43298,-2.44873 2.82255,-0.24729 5.91998,-0.87138 6.88317,-1.38687 2.17921,-1.16627 3.88276,-1.205375 3.88276,-0.0891 0,0.98015 -4.30548,2.87236 -15.29536,6.72212 -9.340957,3.27216 -9.816706,4.00893 -9.249012,14.32355 0.987231,17.93732 2.123981,18.60661 19.565312,11.51956 4.9359,-2.00564 6.88794,-2.2877 12.07798,-1.74523 8.05802,0.84223 6.13502,2.54272 -4.85341,4.29183 -4.26003,0.6781 -11.12051,2.53744 -15.24551,4.13187 -8.37334,3.23654 -11.701098,3.57735 -14.55887,1.49107 z M 195,133.45133 c 0,-0.41946 4.275,-5.16824 9.5,-10.55286 12.99491,-13.39188 12.80029,-17.78361 -1.01472,-22.89847 -8.78165,-3.251316 -10.43433,-5.538563 -7.7571,-10.735546 5.10523,-9.910183 23.72011,-11.659847 25.09858,-2.359086 0.80581,5.436894 -5.74611,7.085058 -8.32676,2.094632 -1.89461,-3.663777 -3.91611,-3.820758 -6.10875,-0.474377 -2.27555,3.47294 -0.42955,5.384934 8.10962,8.399515 13.23952,4.673942 14.15798,12.902642 2.60002,23.294252 C 210.18141,126.44059 195,135.5298 195,133.45133 Z m 22.8125,-16.38883 c 0.25,-0.75 -0.125,-1.125 -0.875,-0.875 -0.72188,0.24062 -1.50938,1.02813 -1.75,1.75 -0.25,0.75 0.125,1.125 0.875,0.875 0.72187,-0.24062 1.50937,-1.02813 1.75,-1.75 z M 100,121.61543 c 0,-4.04958 16.60698,-11.05401 20.7333,-8.74481 1.13891,0.63737 0.54507,1.04218 -2.31631,1.57898 -4.38618,0.82285 -8.99728,2.97128 -11.91699,5.55244 -2.96033,2.61707 -6.5,3.49566 -6.5,1.61339 z m 143.19605,-7.51267 c -9.8794,-3.41229 -14.91814,-11.38067 -10.18772,-16.111088 1.20766,-1.207662 3.2697,-4.541571 4.58231,-7.408687 3.49378,-7.631416 5.98993,-9.481698 16.46015,-12.201156 C 268.27132,74.688296 272,75.287385 272,81.265741 c 0,6.228487 -1.605,7.197768 -6.25547,3.77777 -6.02676,-4.43213 -11.04181,-3.40003 -21.77965,4.482268 C 234.54829,96.438192 236.38725,108 246.90329,108 c 1.10143,0 3.1607,0.52766 4.57614,1.17258 3.39251,1.54573 7.87134,-0.54977 14.57268,-6.81809 C 269.20653,99.403897 271,98.289419 271,99.279825 c 0,0.854425 0.5625,1.742205 1.25,1.972825 2.23701,0.75041 -5.89378,9.39094 -11.43562,12.15256 -6.10744,3.04347 -10.34102,3.21108 -17.61833,0.69755 z M 281.69244,99.25 c -0.89347,-22.786828 0.58937,-25.820081 13.57436,-27.7673 15.07297,-2.260332 18.5366,7.850666 5.74762,16.77843 -7.5967,5.303132 -8.0811,6.484998 -4.04047,9.858267 C 299.85938,100.52826 304,107.59414 304,110.1092 c 0,1.94224 -1.94509,0.71571 -3.91201,-2.46683 C 295.27099,99.848306 286,98.006506 286,104.84362 286,122.1625 282.40794,117.498 281.69244,99.25 Z M 296.25,86.659199 c 7.31794,-6.834572 7.86502,-7.992093 4.60253,-9.738121 -5.88897,-3.151681 -11.81539,1.577814 -12.58286,10.041564 -0.67846,7.482196 -0.34225,7.469412 7.98033,-0.303443 z m 37.11854,20.858811 c -0.3696,-0.96315 0.57572,-5.64994 2.10436,-10.433226 2.82784,-8.848582 3.02031,-14.197867 0.9478,-26.342043 -0.87154,-5.106929 1.27857,-8.109303 7.27968,-10.165226 17.23555,-5.90473 24.92968,-0.41197 14.53269,10.374726 -4.76693,4.945607 -4.76693,4.945607 -0.75,4.410702 15.73715,-2.095601 11.40103,15.64924 -5.06696,20.735684 -5.41946,1.673899 -7.91226,3.186836 -12.56841,7.628053 -4.87782,4.65265 -5.91561,5.25992 -6.47916,3.79133 z m 21.9966,-18.59059 c 6.22324,-4.895198 1.72822,-9.333411 -6.98274,-6.894494 -3.87923,1.086118 -4.4548,1.574121 -3.97306,3.368596 0.30984,1.154163 0.5695,2.885978 0.57701,3.848478 0.0202,2.585638 6.95563,2.370079 10.37879,-0.32258 z M 364,84.450583 c 0,-2.771938 -2.41288,-5.931474 -3.851,-5.04267 -0.84595,0.522829 -0.86377,1.256529 -0.0667,2.745916 0.59825,1.117849 0.81317,3.126411 0.47759,4.463471 -0.56062,2.233651 -0.44574,2.32834 1.41496,1.166312 C 363.0887,87.088024 364,85.588161 364,84.450583 Z M 348.45415,73.926266 c 8.54002,-5.763591 9.30638,-14.956514 0.88375,-10.600999 -5.07563,2.624707 -8.15812,8.373696 -6.62791,12.361352 0.66315,1.728148 0.50201,1.777531 5.74416,-1.760353 z M 323.07029,104.25 c -0.0387,-0.6875 -0.67283,-1.25 -1.40928,-1.25 -1.43589,0 -4.10124,-14.466933 -3.86898,-21 0.0684,-1.925 -0.62092,-4.938014 -1.5319,-6.695587 -2.99755,-5.783229 0.6436,-9.823162 7.81934,-8.675715 4.37802,0.700074 5.05523,2.762384 2.42053,7.371302 -1.0104,1.767517 -1.4601,6.162417 -1.53485,15 -0.0582,6.875 -0.49246,13.4 -0.96515,14.5 -0.47269,1.1 -0.89106,1.4375 -0.92971,0.75 z M 321,79.416667 c 0,-6.427027 -0.31403,-8.476396 -1.25,-8.157659 C 317.95044,71.871831 318.72984,88 320.55902,88 320.80156,88 321,84.1375 321,79.416667 Z m 95.5454,16.656786 C 415.82683,94.910781 417.63111,91 418.8861,91 c 0.44865,0 0.77032,1.200442 0.71481,2.667648 -0.10461,2.765389 -1.9401,4.210587 -3.05551,2.405805 z M 233.05404,94.5 c 0.0127,-1.32306 2.80173,-4.97756 3.36723,-4.412059 0.24307,0.243067 -0.41727,1.560217 -1.46743,2.926999 -1.05015,1.366783 -1.90506,2.03506 -1.8998,1.48506 z m 145.80674,-3.41301 c -2.2213,-1.799983 -2.36476,-2.582838 -2.42817,-13.25 -0.0372,-6.250547 -0.63046,-13.012418 -1.32238,-15.07129 -1.76871,-5.26297 1.62551,-12.223889 3.53461,-7.248841 0.78205,2.037989 2.70506,1.861705 7.645,-0.700826 2.31559,-1.201182 6.68516,-2.525396 9.71016,-2.942698 3.025,-0.417302 6.625,-1.087553 8,-1.489448 5.83817,-1.70642 -0.35574,2.571109 -6.82568,4.713831 -15.80879,5.235571 -15.25741,4.682351 -15.0799,15.130271 0.31251,18.394508 1.3498,19.236127 16.90558,13.716525 7.41736,-2.631876 9.31397,-2.931031 14.89062,-2.348715 8.06682,0.842343 6.56206,1.834375 -6.63403,4.373586 -5.36613,1.032557 -12.35692,3.036855 -15.5351,4.453996 -6.89727,3.075468 -9.70549,3.220371 -12.86071,0.663609 z m 55.40669,-8.725374 c 3.81455,-4.031482 4.75125,-20.402547 1.52629,-26.675538 -1.2176,-2.368383 0.81337,-4.885158 3.61873,-4.484335 1.6782,0.239776 2.0221,0.886484 1.75391,3.298257 -1.2396,11.147498 -1.22218,22.5 0.0345,22.5 1.77608,0 1.47225,6.958381 -0.35438,8.116006 -2.25189,1.427131 -3.6909,0.992663 -4.02699,-1.215832 C 436.5,81.800348 436.5,81.800348 433.5,84.071841 c -2.5371,1.921004 -2.41868,1.657118 0.76747,-1.710225 z m 11.34825,-7.0318 c 1.16365,-1.006399 3.71916,-3.096322 5.6789,-4.644274 16.33973,-12.906319 6.46771,-28.401324 -13.54462,-21.259487 -3.69688,1.319312 -4.93965,0.745324 -2.5,-1.154654 C 436.88728,46.996302 449.51451,45 455.94263,45 c 15.94695,0 11.77883,19.679192 -6.1217,28.902685 -3.47651,1.791321 -5.36885,2.43353 -4.20521,1.427131 z M 385,71.048041 c 0,-1.695715 8.64852,-6.958273 13.13544,-7.992818 C 403.75251,61.760103 407,61.739872 407,63 c 0,0.55 -1.13945,1 -2.53212,1 -3.4445,0 -8.32576,2.15544 -12.11224,5.348462 C 389.27594,71.945477 385,72.933468 385,71.048041 Z M 535.21804,60.25 c -1.20132,-5.3625 -2.71304,-13.348474 -3.35937,-17.746608 -0.95524,-6.500187 -1.67384,-8.465074 -3.84004,-10.5 -5.1132,-4.803331 -6.34987,-7.539986 -4.83526,-10.700115 3.58407,-7.477907 7.67064,-1.486753 11.0817,16.246432 C 535.47645,43.847369 536.75778,49 537.11247,49 c 1.27634,0 3.02006,-5.824883 3.25143,-10.861407 0.49276,-10.726435 4.00244,-9.236833 4.95307,2.102211 1.00003,11.928362 3.96345,11.497377 7.24134,-1.053145 3.44504,-13.190543 11.62223,-25.541134 22.7169,-34.3109671 7.79542,-6.1619247 9.73701,-4.18930372 2.62836,2.6703603 C 565.03222,19.967565 557.27824,33.823321 551.4878,54.75 c -0.95032,3.434484 -2.3962,2.711313 -4.61704,-2.309264 -3.37293,-7.625074 -5.10174,-5.902134 -6.8373,6.814103 -1.79586,13.157953 -2.07764,13.216187 -4.81542,0.995161 z m 37.81201,-0.713791 c -0.95972,-1.156389 -0.89239,-2.46891 0.32062,-6.25 C 574.19518,50.653794 575.17048,45.35 575.51803,41.5 576.7555,27.791528 588,6.2026022 588,17.535183 c 0,0.844351 0.61806,2.531851 1.37346,3.75 3.00196,4.840925 4.75755,15.477689 3.60427,21.837607 -0.59551,3.284042 -0.80379,6.849886 -0.46285,7.924098 C 592.85582,52.121099 592.69126,53 592.14918,53 c -0.54208,0 -1.76822,0.300317 -2.72475,0.667371 -1.57054,0.602673 -1.67465,0.118714 -1.07397,-4.992183 0.74409,-6.330996 -1.19203,-9.675622 -5.60046,-9.674736 -2.17114,4.36e-4 -2.25789,0.357079 -2.47499,10.175527 -0.22843,10.330551 -0.76677,11.774501 -4.40257,11.808708 -0.89515,0.0084 -2.17423,-0.643393 -2.84239,-1.448478 z m 11.98753,-24.962578 c 3.17845,-0.352515 4.11405,-1.695985 3.42549,-4.918831 -1.81696,-8.504465 -5.35188,-6.830859 -7.86077,3.721681 -0.59529,2.503812 -0.45059,2.7786 1.1169,2.120972 0.99044,-0.415531 2.48371,-0.83125 3.31838,-0.923822 z M 603.17591,59.25 c -0.52055,-1.018458 -0.53825,-7.530912 -0.0424,-15.579137 0.54899,-8.90977 0.49893,-14.48905 -0.14073,-15.684258 C 600.29311,22.942133 603.6225,17.75 609.55691,17.75 c 3.56706,0 3.7472,0.447681 2.58434,6.422413 -4.97249,25.54828 -3.51043,27.652405 13.72102,19.746603 3.49925,-1.605459 6.87425,-2.904045 7.5,-2.885747 C 634.92279,41.078902 630.10047,45 628.48383,45 627.7718,45 625.30407,46.575 623,48.5 c -2.30407,1.925 -5.06593,3.5 -6.13745,3.5 -1.07153,0 -4.11312,2.025 -6.7591,4.5 -5.42387,5.073398 -5.68669,5.177727 -6.92754,2.75 z m 39.44793,-6.04963 c -0.27181,-0.439797 -0.26014,-6.627297 0.0259,-13.75 0.28607,-7.122704 0.54347,-13.85037 0.57199,-14.95037 0.0285,-1.1 -0.5722,-3.501055 -1.33495,-5.335677 -1.33062,-3.200532 -1.27057,-3.435701 1.48229,-5.804476 3.63859,-3.130935 9.30317,-3.041119 8.83923,0.140153 -0.16042,1.1 -1.01803,6.527528 -1.9058,12.061173 -2.70235,16.844231 -0.34725,18.559808 15.57051,11.342356 C 673.14926,33.604331 673,33.643452 673,35.035537 c 0,0.569546 -1.9125,1.861231 -4.25,2.870412 -2.3375,1.009181 -5.10896,2.795087 -6.1588,3.96868 -1.04985,1.173593 -3.58363,2.584787 -5.63062,3.135987 -2.047,0.551199 -5.68784,2.799301 -8.09075,4.995782 -4.49647,4.110178 -5.39559,4.569953 -6.24599,3.193972 z"
         id="path4" />
      <path
         style="fill:#494949;fill-opacity:1"
         d="m 17.2,155.8 c -1.732426,-1.73243 -1.486532,-5.74759 0.920725,-15.03441 C 22.970795,122.05479 18.320352,112.50055 8.5,121 1.7076823,126.87871 -1.8449876,123.83233 4.2010933,117.31373 9.7182889,111.36535 48.644392,95.862818 57.5,96.087151 c 3,0.076 3,0.076 -0.187685,1.471864 -1.753227,0.767727 -3.553227,2.041475 -4,2.830555 -0.446773,0.78907 -3.65512,2.1694 -7.129659,3.06739 C 26.364328,108.57895 25.5,109.84278 25.5,133.69919 c 0,19.24914 -0.02626,19.48703 -2.360784,21.38325 C 20.409736,157.29947 18.88383,157.48383 17.2,155.8 Z m 48.931144,-11.28721 c -1.416532,-5.13025 -0.226336,-32.1889 1.478074,-33.60343 2.707543,-2.24706 3.529049,0.0812 2.835193,8.03547 -0.791536,9.074 0.294831,10.37523 5.355478,6.41468 3.258845,-2.55043 5.396789,-7.89141 4.512481,-11.27301 -0.282177,-1.07905 0.137748,-2.89105 0.933167,-4.02667 2.023644,-2.88915 3.485588,24.24142 1.536743,28.51867 -1.454333,3.19191 -2.489058,1.09163 -2.6826,-5.44513 -0.08928,-3.01527 -0.334504,-3.29385 -2.34968,-2.66927 -1.2375,0.38355 -3.2625,0.9385 -4.5,1.23321 -1.864483,0.44403 -2.26476,1.24407 -2.336145,4.66927 -0.208718,10.01469 -0.4074,11.09573 -2.100001,11.42623 -1.203161,0.23493 -1.971604,-0.7046 -2.68271,-3.28002 z m 28.26856,-2.2781 C 91.855318,140.53576 91,136.63121 91,126.71496 91,120.98588 90.50321,114.87335 89.896022,113.13157 88.430748,108.92829 89.456364,105 92.019052,105 93.151081,105 94,105.67169 94,106.56739 c 0,1.85851 2.780027,1.24491 7.61803,-1.68141 1.71492,-1.03729 4.4559,-1.88598 6.09107,-1.88598 1.63517,0 5.16106,-0.6585 7.83531,-1.46333 10.49484,-3.15848 4.32713,1.03579 -7.09374,4.82401 -12.693888,4.21047 -12.510636,3.9746 -11.994923,15.43923 0.787054,17.49672 2.00685,18.29762 18.567773,12.19142 6.84953,-2.5255 8.69763,-2.83937 12.15048,-2.06357 2.23974,0.50324 4.80435,0.65913 5.69913,0.34643 1.26425,-0.44182 1.36849,-0.2885 0.46764,0.68786 -0.63757,0.69102 -5.58757,2.05706 -11,3.03565 -5.41242,0.97858 -12.48426,2.95443 -15.7152,4.39077 -5.84703,2.59935 -10.12945,3.24603 -12.225866,1.84622 z M 195,133.40248 c 0,-0.32863 4.275,-5.00975 9.5,-10.40248 12.08765,-12.47569 12.56594,-18.55993 1.73436,-22.06293 -10.9541,-3.542633 -13.13216,-6.366442 -9.8324,-12.74749 4.56425,-8.826287 23.23866,-9.777929 24.44301,-1.245608 0.72922,5.16626 -5.8929,6.797814 -8.34497,2.056028 -2.39739,-4.636038 -8.61723,-2.095442 -7.03954,2.875416 C 206.01571,93.624845 214.9247,98 217.93176,98 c 4.99714,0 8.50317,9.32448 5.60981,14.91962 C 220.40322,118.98851 195,137.21914 195,133.40248 Z m 23.09572,-16.01782 c 1.15986,-1.39754 1.08641,-1.56608 -0.54469,-1.25 -1.03691,0.20094 -2.07259,0.92784 -2.3015,1.61534 -0.59396,1.78389 1.25999,1.54592 2.84619,-0.36534 z m -117.67885,4.48083 c -1.75102,-2.83321 9.98081,-8.84809 17.08313,-8.75848 5,0.0631 5,0.0631 -0.20441,1.32457 -2.86243,0.69383 -6.68743,2.38541 -8.5,3.75907 -5.264,3.98934 -7.56156,4.99703 -8.37872,3.67484 z M 243,113.93137 C 233.79388,110.71341 228.70084,103.1284 232.76912,98.694637 233.87666,97.487587 236.1325,93.8 237.78208,90.5 c 4.66486,-9.33211 7.44321,-10.853469 24.63219,-13.488046 8.06307,-1.235836 10.00258,-0.156437 9.28826,5.169208 -0.79131,5.899598 -1.15555,5.947028 -8.76038,1.140735 -3.63908,-2.299921 -8.43839,-1.12176 -15.93435,3.911648 -12.56824,8.439361 -12.97458,18.616505 -0.83288,20.859855 2.37879,0.43952 5.5275,1.09406 6.99713,1.45454 3.01425,0.73935 10.1565,-3.49575 15.12383,-8.96792 2.60661,-2.871521 2.75111,-2.917469 2.1346,-0.678748 -0.53408,1.939368 -0.35055,2.282028 0.95412,1.781388 5.43136,-2.084212 -4.31061,8.46693 -10.7114,11.60109 -6.45766,3.16201 -10.09824,3.29541 -17.6732,0.64762 z m 39.45709,-10.63635 c -1.73616,-24.010958 -1.11537,-27.008096 6.17042,-29.790567 8.92153,-3.407162 19.21638,-2.708041 19.48318,1.323099 0.43755,6.610931 -1.48379,10.028979 -7.67793,13.658984 -7.17082,4.20238 -7.92362,7.610863 -2.4014,10.872918 1.63275,0.964486 2.96864,2.542166 2.96864,3.505956 0,0.96378 0.66069,2.62584 1.4682,3.69346 1.84596,2.44059 1.90188,3.44113 0.19232,3.44113 -0.73672,0 -1.84457,-1.10853 -2.46189,-2.46339 -4.05415,-8.897897 -13.44805,-9.308781 -14.40516,-0.63008 -1.1571,10.49208 -2.41505,9.1304 -3.33638,-3.61151 z m 13.05724,-15.920685 c 9.15492,-8.087533 9.57406,-12.186042 1.13041,-11.05351 -5.81677,0.780193 -7.92737,3.438413 -8.44831,10.640333 -0.53312,7.370293 -0.55595,7.369004 7.3179,0.413177 z m 37.91178,20.293705 c -0.3374,-0.87926 0.59886,-5.23892 2.08058,-9.68813 2.74303,-8.236569 3.01364,-16.375937 0.93694,-28.181502 -0.89783,-5.104004 2.2756,-7.920443 11.40801,-10.124669 15.59411,-3.763844 19.94853,1.578727 9.66677,11.860482 -4.41308,4.413081 -4.41308,4.413081 -0.14799,3.828486 3.89596,-0.534001 4.49722,-0.308714 6.94733,2.603074 6.1051,7.255497 1.63747,13.302389 -13.81775,18.702202 -3.18072,1.111294 -7.08497,3.721167 -10.73021,7.172817 -4.52926,4.28872 -5.85879,5.09084 -6.34368,3.82724 z m 21.93903,-18.74062 c 5.60832,-4.411502 2.16273,-9.022257 -5.62171,-7.522764 -5.08057,0.978654 -5.75358,1.757948 -5.08362,5.886455 0.73247,4.513632 6.01996,5.321825 10.70533,1.636309 z M 364,84.450583 c 0,-2.771938 -2.41288,-5.931474 -3.851,-5.04267 -0.84595,0.522829 -0.86377,1.256529 -0.0667,2.745916 0.59825,1.117849 0.81317,3.126411 0.47759,4.463471 -0.56062,2.233651 -0.44574,2.32834 1.41496,1.166312 C 363.0887,87.088024 364,85.588161 364,84.450583 Z m -15.72856,-10.19966 c 5.63621,-3.664219 6.76485,-5.188453 6.47366,-8.742734 -0.50371,-6.148512 -9.85504,-2.314316 -11.82057,4.846626 -1.90407,6.937028 -0.69061,7.821231 5.34691,3.896108 z m -26.4169,28.691707 c -1.94785,-1.09499 -4.21558,-14.929385 -3.59847,-21.952656 0.37234,-4.237611 0.40434,-4.170107 0.56922,1.201009 0.27989,9.117024 2.17471,8.130742 2.17471,-1.131966 0,-4.432459 0,-8.396517 0,-8.809017 0,-1.857725 -2.46842,-0.50179 -2.97232,1.632728 -0.5007,2.121011 -0.70694,2.208667 -1.87766,0.798039 -3.188,-3.841311 1.86777,-8.816448 8.09998,-7.970795 4.46435,0.605771 4.70011,1.887901 1.62532,8.838972 -1.87147,4.230787 -2.05547,6.003688 -1.54398,14.877118 0.6454,11.196578 0.0978,13.963888 -2.4768,12.516568 z M 417,95.205778 c 0,-1.078489 0.58311,-2.444829 1.29581,-3.036313 1.00618,-0.835055 1.28557,-0.489873 1.25,1.544364 C 419.49294,96.737288 417,98.198256 417,95.205778 Z M 233.0318,94.360784 c 0.0451,-1.220288 2.8613,-4.801572 3.37179,-4.287783 0.23334,0.234849 -0.43701,1.489352 -1.48967,2.787783 -1.05266,1.298431 -1.89961,1.973431 -1.88212,1.5 z m 146.79321,-2.398907 c -2.835,-1.654132 -4.05503,-7.328247 -3.30247,-15.35917 0.51398,-5.484929 0.27986,-8.770619 -0.91876,-12.893715 -0.88468,-3.043197 -1.3343,-6.247664 -0.99916,-7.121039 C 375.2658,54.864958 379,54.365448 379,56 c 0,1.734159 4.12267,1.087328 7.88197,-1.23665 1.98991,-1.230157 6.09303,-2.531468 9.11803,-2.891801 3.025,-0.360333 6.625,-0.967152 8,-1.348487 6.62438,-1.837166 -2.58623,3.169287 -10.74947,5.842905 -11.79216,3.86216 -11.26044,3.14428 -11.11148,15.001597 0.22014,17.523524 2.41956,18.891301 19.32903,12.020367 4.99805,-2.03089 6.96108,-2.325552 11.826,-1.775149 7.65392,0.865942 6.2032,2.052776 -4.86251,3.978024 -4.91236,0.854668 -12.22807,2.871374 -16.25713,4.481568 -7.84414,3.134877 -9.72245,3.422264 -12.34943,1.889503 z M 437,84.031385 c 0,-1.418612 -0.48893,-1.814306 -1.75,-1.416297 -1.29327,0.40817 -1.14738,0.01944 0.55899,-1.489445 1.26994,-1.122969 2.30355,-2.848135 2.29691,-3.833702 -0.0521,-7.728632 -1.31464,-20.90068 -2.07637,-21.662408 C 434.62039,54.220389 436.73301,51 439.06657,51 c 2.51313,0 3.61052,2.68616 2.09125,5.118897 C 439.71671,58.426481 439.57633,77 441,77 c 1.41086,0 1.24799,6.352015 -0.2,7.8 -1.83038,1.830383 -3.8,1.431994 -3.8,-0.768615 z M 450.61891,71.311077 C 468.00198,54.973373 460.53695,43.437364 436.5,49.492564 c -2.64592,0.666541 -2.82296,0.582695 -1.5,-0.7104 4.07212,-3.980191 26.97093,-4.573519 29.01623,-0.751835 4.31754,8.067395 -1.51786,19.046932 -13.51623,25.431307 -5,2.660519 -5,2.660519 0.11891,-2.150559 z M 386,70.632886 c 0,-3.681477 17.53527,-10.497619 20.18627,-7.846614 0.57897,0.57897 -0.65848,1.147855 -3.25415,1.496007 -2.45541,0.32934 -6.33787,2.04219 -9.38344,4.13975 C 388.00246,72.24186 386,72.82834 386,70.632886 Z m 150.75256,-3.39309 C 536.49327,65.732908 535.3593,60 534.23263,54.5 533.10596,49 531.88725,42.34322 531.52437,39.707156 c -0.5152,-3.74263 -1.63098,-5.886378 -5.09207,-9.78338 -5.03869,-5.6733 -4.7898,-5.045052 -3.29685,-8.321711 3.68224,-8.081641 7.94766,-1.454895 11.35939,17.647935 0.95773,5.3625 2.16115,9.75 2.67427,9.75 1.57673,0 3.90475,-6.857527 3.23455,-9.527832 C 539.76599,36.931489 541.59376,31 543.01433,31 c 1.17709,0 1.98447,2.76252 1.99668,6.831787 0.0456,15.216915 4.6044,14.572357 8.5692,-1.211594 2.77102,-11.031489 12.26757,-24.667776 22.316,-32.0440041 8.26603,-6.0678243 8.628,-3.69569915 0.62793,4.1150649 -6.72312,6.5640252 -19.16721,25.1624962 -20.55489,30.7205492 -0.56138,2.248508 -1.65522,5.505374 -2.43076,7.237478 -0.77554,1.732105 -1.71405,4.769605 -2.08557,6.75 -0.90103,4.802897 -2.1223,4.537837 -4.48466,-0.973336 -3.59921,-8.396615 -7.73831,-1.726769 -7.92158,12.765038 -0.0564,4.460116 -1.6364,5.871165 -2.29412,2.048813 z m 36.87957,-7.51952 c -1.4922,-1.091123 -1.57753,-1.717476 -0.57902,-4.25 C 573.69722,53.836624 574.79631,48 575.49552,42.5 c 2.46776,-19.4113 9.31973,-31.504616 13.01227,-22.965857 6.03439,13.954145 6.1331,34.339857 0.16682,34.450544 -0.45397,0.0084 -0.67897,-2.797187 -0.5,-6.234687 0.32485,-6.239575 0.31965,-6.252863 -3.11291,-7.966166 -4.00149,-1.997268 -6.70033,-0.845646 -5.08622,2.170343 1.12422,2.100632 0.15843,16.032216 -1.23368,17.795823 -1.25948,1.595585 -2.89998,1.586042 -5.10967,-0.02972 z m 12.15051,-25.119811 c 2.49891,-0.09239 2.69955,-0.402937 2.4958,-3.863061 -0.52525,-8.92004 -3.83812,-9.412763 -6.70555,-0.997317 -2.0835,6.114758 -2.09528,7.938348 -0.0403,6.232823 0.84295,-0.699589 2.75545,-1.317189 4.25,-1.372445 z M 603.20812,59.25 c -0.48307,-0.980421 -0.48238,-8.088361 0.002,-16.163244 0.58372,-9.739662 0.52765,-14.749419 -0.17293,-15.45 -3.325,-3.324997 1.20399,-9.947318 6.45079,-9.432397 3.37381,0.331105 3.30445,-0.218957 1.48726,11.795641 -2.18931,14.474951 -2.21756,15.002575 -0.88894,16.603462 1.78081,2.14575 8.47459,1.069169 16.78717,-2.699933 3.52197,-1.596941 6.67885,-2.888558 7.01528,-2.87026 C 635.07639,41.097888 629.75995,45 628.48383,45 627.7718,45 625.30407,46.575 623,48.5 c -2.30407,1.925 -5.03163,3.5 -6.06123,3.5 -1.02961,0 -4.15205,2.025 -6.93877,4.5 -5.78941,5.141816 -5.64267,5.082403 -6.79188,2.75 z m 39.51348,-6.533121 c -0.27081,-0.705717 -0.27797,-6.668217 -0.0159,-13.25 C 642.96774,32.885095 643.2094,26.375 643.2427,25 643.276,23.625 642.67252,20.998945 641.90163,19.164323 640.21386,15.147669 643.81835,11 648.99675,11 c 3.8585,0 4.06977,0.615933 2.40639,7.015789 -4.926,18.952836 -1.20227,25.817072 11.1154,20.489884 11.62273,-5.026637 10.98546,-4.817887 9.59565,-3.143262 -0.71214,0.858075 -2.26666,1.863277 -3.4545,2.233782 -1.18783,0.370505 -3.65906,1.981556 -5.49162,3.580113 -1.83257,1.598557 -4.66294,3.172667 -6.28971,3.498023 -1.62678,0.325355 -5.14353,2.556731 -7.815,4.958613 -5.34532,4.805899 -5.6282,4.943461 -6.34176,3.083937 z m 15.00757,-10.321046 c -0.33229,-0.332291 -1.1948,-0.367818 -1.91667,-0.07895 -0.79773,0.319226 -0.56078,0.556183 0.60417,0.604167 1.05416,0.04342 1.64479,-0.192928 1.3125,-0.52522 z"
         id="path3" />
      <path
         style="fill:#333333;fill-opacity:1"
         d="m 17.75,155.9199 c -2.28072,-1.3284 -2.207253,-4.30954 0.351256,-14.25329 C 23.014216,122.5722 18.654817,112.43363 9,120.5 c -6.3463665,5.30224 -10.749846,2.30966 -4.75,-3.22807 6.780278,-6.25806 45.305333,-21.41331 53.94282,-21.220402 1.835873,0.041 1.541135,0.369269 -1.44282,1.606954 -2.0625,0.855485 -3.75,2.110688 -3.75,2.789338 0,0.68761 -2.545773,1.79864 -5.75,2.50942 -20.552053,4.55897 -22.670224,7.58225 -21.876466,31.2244 0.627214,18.68164 0.627214,18.68164 -2.277531,20.75 -3.334098,2.37409 -3.055202,2.32253 -5.346003,0.98826 z m 48.287054,-12.28756 c -0.78987,-2.82113 -0.985017,-6.37526 -0.531216,-9.67479 0.394522,-2.86851 0.700883,-8.06324 0.680804,-11.54383 C 66.14225,114.71886 67.163987,110.5 69.071947,110.5 c 1.124118,0 1.428053,1.7886 1.428053,8.4038 0,9.88612 0.816387,10.66603 6.098154,5.82565 3.26268,-2.99002 3.766797,-4.08513 4.181271,-9.08315 0.820615,-9.89553 1.892017,-7.03194 2.55703,6.8343 0.704785,14.69551 0.256993,18.05147 -1.997282,14.96857 C 80.602628,136.44188 80,134.42875 80,132.97554 c 0,-3.59397 -0.684988,-4.0217 -3.820689,-2.38572 -1.473621,0.76882 -3.241811,1.40063 -3.929311,1.40402 -1.440265,0.007 -1.493676,0.29977 -1.640475,8.98923 -0.139668,8.26731 -2.600344,9.69302 -4.572471,2.64927 z m 27.035526,-3.2672 C 91.276919,138.08233 91,136.33775 91,127.30796 c 0,-5.73228 -0.512073,-12.45594 -1.137939,-14.94149 -1.437666,-5.70948 1.006961,-9.55767 3.733902,-5.87769 1.457739,1.96721 1.530471,1.95907 6.704727,-0.75 2.87706,-1.50633 6.79888,-2.75853 8.71516,-2.78267 1.91628,-0.0241 5.26692,-0.67887 7.44587,-1.45495 2.17894,-0.77608 4.10549,-1.26728 4.28121,-1.09157 0.75207,0.75207 -4.84451,3.38498 -12.74293,5.99491 -12.211448,4.0351 -12.131491,3.92477 -11.610128,16.02057 0.738862,17.14184 2.328646,18.20622 17.802098,11.91879 6.43222,-2.61364 10.26148,-3.06209 15.786,-1.8487 4.32799,0.95059 3.84919,1.16439 -7.56066,3.37619 -5.48852,1.06395 -12.85531,3.10315 -16.37063,4.53155 -8.044907,3.26894 -10.378392,3.26215 -12.9741,-0.0378 z m 104.7638,-10.1139 c 1.65352,-2.06318 5.55145,-6.22624 8.66205,-9.25124 11.62751,-11.30752 10.91822,-15.26694 -3.85611,-21.525616 -10.16191,-4.304767 -9.97797,-11.62961 0.42714,-17.010301 8.81704,-4.55947 22.46634,2.121099 16.1018,7.880929 C 216.59332,92.678011 215.43999,92.426644 213,89 c -2.48471,-3.489458 -4.01566,-3.745162 -6.43267,-1.074404 -3.5564,3.929783 -1.77414,5.789109 9.72618,10.14676 15.21818,5.766404 10.44477,17.535854 -12.79351,31.543984 -7.99945,4.8221 -9.1201,4.94772 -5.66362,0.6349 z m 20.54076,-14.45003 c -0.31663,-0.51232 -1.42041,-0.16704 -2.45284,0.76729 -1.03242,0.93434 -1.61807,2.11797 -1.30144,2.63029 0.31663,0.51232 1.42041,0.16704 2.45284,-0.76729 1.03242,-0.93434 1.61807,-2.11797 1.30144,-2.63029 z M 100,121.136 c 0,-3.09065 11.79444,-8.20963 18.4934,-8.02643 4.0066,0.10956 4.0066,0.10956 -0.34663,0.96547 -4.27694,0.84091 -12.45415,4.99526 -13.6541,6.93682 C 103.7418,122.22679 100,122.33018 100,121.136 Z m 144.12056,-7.10752 c -11.16786,-3.80175 -15.50857,-10.40178 -10.64358,-16.183495 1.49557,-1.777386 3.73996,-5.539667 4.98752,-8.360624 3.58728,-8.111483 6.76534,-9.619002 27.16227,-12.884483 4.88321,-0.781787 6.75351,1.189796 5.90318,6.222875 -0.82135,4.861532 -1.51099,5.056227 -5.94106,1.677247 -11.03985,-8.420504 -35.5044,11.028934 -25.92379,20.60954 1.90098,1.90099 4.28871,2.70264 13.60888,4.56901 3.21112,0.64303 9.30124,-2.92284 14.34798,-8.40098 3.12197,-3.388837 3.12197,-3.388837 2.58881,-0.5832 -0.47918,2.52155 -0.36496,2.66666 1.12803,1.43319 3.07275,-2.538645 1.69587,-0.12063 -2.5888,4.54631 -7.74618,8.43729 -15.04585,10.61705 -24.62944,7.35461 z m 38.3824,-11.73262 c -1.64185,-26.087545 -0.33557,-28.934144 14.14665,-30.827853 13.69977,-1.791395 15.5783,9.051277 3.04068,17.55046 -6.25411,4.239626 -7.10259,7.034193 -2.89105,9.52201 C 300.13022,100.50814 304.83669,110 302.48136,110 c -0.74062,0 -1.64012,-0.92486 -1.99889,-2.05524 -1.92459,-6.06382 -14.42828,-10.531037 -14.54009,-5.19476 -0.31142,14.86399 -2.49349,14.57587 -3.43942,-0.45414 z m 13.9076,-15.510449 C 304.88713,78.791042 304.9986,76 296.84129,76 291.6385,76 288,80.701002 288,87.423077 c 0,6.98063 0.36184,6.953196 8.41056,-0.637666 z M 284.5,89 c 0.33992,-0.55 0.14148,-1 -0.44098,-1 C 283.47656,88 283,88.45 283,89 c 0,0.55 0.19844,1 0.44098,1 0.24254,0 0.7191,-0.45 1.05902,-1 z m 48.5,17.67515 c 0,-0.72866 1.16525,-4.66616 2.58944,-8.749998 2.80316,-8.037978 3.47455,-19.012385 1.48298,-24.240252 -2.43572,-6.393741 -0.1796,-10.324521 7.47622,-13.025652 17.25376,-6.087481 23.8627,0.218191 12.15763,11.599751 -2.86345,2.784309 -4.30627,4.733556 -3.20627,4.33166 5.1941,-1.897717 7.19044,-1.760996 10.03685,0.687379 6.99033,6.012826 1.85208,14.583848 -11.10591,18.525593 -5.64888,1.718357 -7.84887,3.041372 -11.89335,7.152359 -4.90916,4.98989 -7.53759,6.2868 -7.53759,3.71916 z m 22.34262,-17.551224 c 4.55041,-3.955059 4.17449,-7.409596 -0.91211,-8.38196 -4.39145,-0.83948 -13.14942,3.077658 -10.51764,4.704183 0.59792,0.369537 1.08713,1.732827 1.08713,3.029535 0,3.763576 6.30378,4.158676 10.34262,0.648242 z M 364,84.466778 C 364,81.161955 362.99235,79 361.45203,79 c -2.03007,0 -2.77298,1.908357 -1.3911,3.573419 0.94503,1.138692 0.96514,2.073937 0.0861,4.003248 -1.60311,3.518449 -1.47874,3.686792 1.35298,1.831376 1.4689,-0.962458 2.5,-2.587999 2.5,-3.941265 z M 348.59476,74.391598 C 353.47177,71.533483 355,69.441792 355,65.624758 355,57.680033 343.49372,63.710663 342.35922,72.25 c -0.74896,5.637348 -0.1062,5.858104 6.23554,2.141598 z m -26.85474,28.205562 c -0.82394,-0.82394 -1.79455,-3.657865 -2.15692,-6.297615 C 319.22073,93.659795 318.67251,90.15 318.36482,88.5 c -0.53678,-2.878552 -0.49605,-2.919034 1.00607,-1 1.4629,1.868923 1.56848,1.541229 1.61096,-5 0.025,-3.85 0.3168,-8.0125 0.64844,-9.25 C 322.11657,71.435423 321.82365,71 320.11663,71 318.4992,71 318,71.618499 318,73.622445 c 0,2.217679 -0.23152,2.4303 -1.5,1.377555 -3.98112,-3.304035 1.05527,-9.082543 7.06473,-8.105733 4.76378,0.774331 5.29928,2.4918 2.49242,7.993711 -1.76157,3.452964 -2.04948,5.79823 -1.98481,16.16809 0.0816,13.087312 -0.0643,13.809162 -2.33232,11.541092 z M 417,95.059017 c 0,-1.067541 0.40285,-2.189956 0.89522,-2.494256 1.0746,-0.664146 2.34765,2.233249 1.54901,3.525481 C 418.459,97.684371 417,97.068814 417,95.059017 Z M 234,92.622445 c 0,-0.207656 0.7875,-0.995156 1.75,-1.75 1.58606,-1.243871 1.62143,-1.208501 0.37756,0.377555 C 234.82119,92.915748 234,93.445479 234,92.622445 Z m 146.25549,-0.840492 c -3.07723,-1.484361 -4.31737,-6.748142 -3.59717,-15.268154 0.43857,-5.188225 0.14636,-8.67384 -1.08111,-12.89619 -1.30104,-4.475436 -1.41595,-6.106991 -0.50722,-7.201945 1.5705,-1.892335 3.93001,-1.801243 3.93001,0.151724 0,1.865853 2.67292,1.27664 7.94496,-1.751374 1.89473,-1.088243 5.85161,-2.161574 8.79306,-2.385179 2.94145,-0.223605 6.26726,-0.898477 7.39068,-1.499715 1.12343,-0.601238 2.26759,-0.868161 2.54259,-0.593161 0.76031,0.76031 -2.70949,2.380079 -12.38254,5.780405 -12.18962,4.284961 -11.54682,3.307719 -11.13803,16.933184 0.49996,16.66406 1.12992,17.044557 17.99948,10.871695 6.29958,-2.305126 8.64843,-2.696311 13.30447,-2.215766 7.46085,0.770028 6.0329,1.817593 -5.09602,3.738502 -5.02774,0.867814 -12.40213,2.922484 -16.38754,4.565933 -7.94193,3.274991 -8.43978,3.350209 -11.71562,1.770041 z M 437.20616,84.25 c 0.16419,-0.977861 -0.25769,-1.639694 -0.95616,-1.5 -1.8911,0.378219 -1.50005,-1.091423 0.81869,-3.076784 1.65361,-1.41587 1.92459,-2.413525 1.35051,-4.972241 -0.39499,-1.760536 -0.78918,-6.425372 -0.87597,-10.366301 -0.0871,-3.957199 -0.70726,-7.827396 -1.38503,-8.644054 C 434.78182,54.032187 436.9447,51 439.50404,51 c 1.99239,0 2.88833,3.822293 1.33474,5.69426 -1.5544,1.872938 -1.39642,19.1481 0.18961,20.734134 1.35589,1.35589 1.21421,5.929011 -0.22839,7.371606 -1.78158,1.781582 -3.93012,1.45277 -3.59384,-0.55 z M 318.19495,80.5 c 0.0204,-1.65 0.2445,-2.203936 0.49804,-1.230968 0.25354,0.972967 0.23687,2.322967 -0.0371,3 C 318.38201,82.946064 318.17457,82.15 318.19495,80.5 Z M 448.1953,73.597312 c 1.48241,-1.324 3.526,-3.012532 4.54131,-3.752293 16.81904,-12.25449 4.08856,-27.271534 -17.23661,-20.33253 -1.84976,0.601895 -1.87128,0.544474 -0.2865,-0.76441 2.30797,-1.906157 17.47835,-4.076386 22.36329,-3.199224 13.24929,2.3791 8.95201,19.255844 -7.07679,27.792742 -4.91012,2.61512 -4.95155,2.619717 -2.3047,0.255715 z M 386.00179,70.75 c 0.005,-3.583647 17.79382,-10.35439 20.38809,-7.760124 C 407.07004,63.670041 406.33849,64 404.15034,64 c -3.50868,0 -7.83689,1.918177 -12.74473,5.648213 -3.42483,2.602923 -5.40655,3.006977 -5.40382,1.101787 z M 536.74801,66.239796 C 536.48621,64.732908 535.3347,58.775 534.18911,53 c -1.1456,-5.775 -2.35977,-12.227898 -2.69816,-14.339773 -0.4045,-2.524414 -1.96421,-5.303215 -4.5531,-8.11183 -4.95778,-5.378552 -4.20438,-15.30329 0.92122,-12.135496 C 529.66257,19.527526 536,43.035274 536,48.610468 536,48.824711 536.43844,49 536.97432,49 c 1.84808,0 3.88668,-5.645388 3.70778,-10.267773 -0.19903,-5.142741 1.67921,-8.357472 3.34423,-5.723868 0.51867,0.820403 0.94994,3.817337 0.95836,6.659854 0.008,2.842516 0.31843,5.95814 0.68892,6.923608 0.51049,1.330325 0.28605,1.606675 -0.92689,1.141229 C 541.87512,46.631113 539,55.082083 539,64.624643 c 0,4.107153 -1.6175,5.267241 -2.25199,1.615153 z m 36.88684,-6.7478 c -1.31485,-1.314851 -1.33061,-2.051339 -0.12303,-5.75 0.76173,-2.333098 1.84308,-8.189358 2.403,-13.013912 C 577.43956,27.590071 581.9617,17 586.04712,17 c 5.67414,0 9.40442,35.314395 3.77508,35.73844 -1.78035,0.13411 -1.89462,-0.310629 -1.30088,-5.062781 0.72167,-5.776037 -0.5918,-7.913678 -5.63578,-9.172139 -3.10326,-0.774254 -4.48813,1.502018 -2.81538,4.627574 0.60137,1.12368 0.75454,3.372081 0.35271,5.177558 -0.39066,1.755241 -0.65634,4.733158 -0.5904,6.617593 0.19167,5.478106 -2.96198,7.801386 -6.19762,4.565751 z M 587.75,34.379772 c 1.68062,-0.426208 1.57618,-3.663348 -0.25996,-8.057861 -1.91041,-4.572256 -4.63097,-2.790665 -6.38683,4.182495 -1.58876,6.309534 -1.52703,6.460714 2.14679,5.257117 1.7875,-0.585611 3.8125,-1.207399 4.5,-1.381751 z m 15.79273,25.689359 c -0.58415,-0.945171 -0.0461,-25.73513 0.59843,-27.569131 0.19327,-0.55 -0.30042,-2.969964 -1.09708,-5.377697 -1.71487,-5.182786 1.61018,-9.531677 6.82549,-8.927187 2.98493,0.345972 2.95586,-0.52861 0.4764,14.334991 -2.77371,16.627532 -0.0562,18.739008 15.34898,11.926095 C 628.7496,43.105291 631.66942,42 632.18345,42 c 1.86448,0 -0.2321,1.795395 -2.8696,2.457364 -1.48777,0.373408 -4.22889,2.016882 -6.09138,3.652166 -1.86248,1.635284 -4.6842,3.232816 -6.27048,3.550072 -1.58628,0.317255 -4.97161,2.548631 -7.52296,4.958613 -5.0865,4.804653 -5.05945,4.788794 -5.8863,3.450916 z m 14.18644,-10.673298 c -0.33229,-0.332291 -1.1948,-0.367818 -1.91667,-0.07895 -0.79773,0.319226 -0.56078,0.556183 0.60417,0.604167 1.05416,0.04342 1.64479,-0.192928 1.3125,-0.52522 z m -70.22888,3.950627 c -0.8396,-2.009447 -1.40814,-3.696947 -1.26342,-3.75 3.23866,-1.187263 4.51949,-3.187064 6.52963,-10.19489 4.09715,-14.283691 13.96047,-28.59856 24.52771,-35.5976558 6.2162,-4.11723681 5.71674,-1.5698643 -0.97415,4.9683643 -6.555,6.4054405 -16.77024,21.2623315 -19.38142,28.1880425 -3.02331,8.018827 -4.17288,11.446761 -5.29513,15.789679 -1.34431,5.202282 -2.16917,5.321029 -4.14322,0.59646 z m 95.82337,-0.547941 c -1.092,-1.415489 -1.0114,-16.186097 0.13367,-24.497298 0.56419,-4.095024 0.34371,-5.829442 -1.03845,-8.169259 -2.3536,-3.984321 -0.15943,-7.714806 5.12018,-8.705268 4.74817,-0.890762 4.90303,-0.569474 3.44641,7.150328 -4.01089,21.256899 -0.29413,26.203701 14.21326,18.917054 2.80472,-1.408733 5.5949,-2.371429 6.20038,-2.139325 0.60549,0.232104 -0.69513,1.198617 -2.89025,2.147805 -2.19513,0.949189 -4.95241,2.763019 -6.12729,4.030734 -1.17488,1.267716 -3.84778,2.777542 -5.93977,3.355169 -2.09482,0.578407 -5.67091,2.88283 -7.96,5.129405 -3.22225,3.1624 -4.38152,3.787338 -5.15814,2.780655 z m 14.40551,-10.402686 c -0.33229,-0.332291 -1.1948,-0.367818 -1.91667,-0.07895 -0.79773,0.319226 -0.56078,0.556183 0.60417,0.604167 1.05416,0.04342 1.64479,-0.192928 1.3125,-0.52522 z"
         id="path2" />
    </g>
    <path
       style="fill:#000000;stroke-width:0.56391"
       d="m 18.394571,154.4387 c -1.21399,-0.85031 -1.291284,-1.21634 -1.041937,-4.93421 0.14813,-2.20867 0.966256,-6.934 1.818058,-10.50073 2.651811,-11.10386 2.012283,-20.16225 -1.558381,-22.07321 -1.801172,-0.96396 -4.844641,-0.13768 -8.2526042,2.24053 -3.7420869,2.61136 -5.4676277,3.2416 -6.5090037,2.37733 -4.0593213,-3.36894 13.1790909,-13.12598 38.8786199,-22.00554 11.275117,-3.895714 20.887292,-5.881626 15.361702,-3.173786 -1.475876,0.72326 -3.264596,1.942127 -3.974933,2.708594 -0.840796,0.907234 -2.659491,1.738952 -5.211327,2.383232 -12.996727,3.28136 -17.218299,5.31365 -19.618761,9.44458 -2.288348,3.938 -2.729374,8.22002 -2.540887,24.67003 0.188066,16.41325 0.159461,16.58451 -3.107176,18.6034 -2.294492,1.41808 -2.565943,1.43469 -4.24337,0.25978 z"
       id="path9" />
    <path
       style="fill:#000000;stroke-width:0.56391"
       d="m 68.26606,145.61819 c -1.82838,-2.79046 -2.063371,-5.03149 -1.698799,-16.2009 0.42321,-12.96591 0.996027,-17.89904 2.220515,-19.12318 1.4832,-1.48278 1.958951,0.15715 2.030476,6.99912 0.03566,3.41166 0.240274,6.83741 0.454685,7.61279 0.658672,2.38195 2.407411,2.04167 5.896805,-1.14744 3.459592,-3.16187 3.957446,-4.3374 4.648747,-10.97663 0.365834,-3.51345 0.466571,-3.7614 0.916409,-2.25563 0.79593,2.66425 1.295362,26.2218 0.555915,26.2218 -1.148565,0 -2.36976,-2.49915 -2.36976,-4.84966 0,-3.45641 -1.019112,-4.03722 -4.475152,-2.55047 -1.530539,0.65842 -3.164858,1.19712 -3.631821,1.19712 -1.360052,0 -1.547846,0.77751 -1.980893,8.20127 -0.441985,7.57698 -1.045884,9.19352 -2.567127,6.87181 z"
       id="path10" />
    <path
       style="fill:#000000;stroke-width:0.56391"
       d=""
       id="path11" />
    <path
       style="fill:#000000;stroke-width:0.398744"
       d="m 94.543833,139.70688 c -1.10732,-1.10731 -1.903391,-2.34112 -2.157047,-3.34314 -0.221114,-0.87347 -0.52112,-5.44598 -0.66668,-10.16113 -0.145561,-4.71515 -0.44085,-9.82905 -0.656198,-11.36422 -0.695971,-4.9614 -0.837524,-8.33768 -0.397045,-9.47018 0.59134,-1.52035 2.130556,-1.48274 3.286167,0.0803 0.478544,0.64727 1.135081,1.27854 1.45897,1.40283 0.323889,0.12429 2.494673,-0.65872 4.82396,-1.74001 4.42626,-2.05474 7.52461,-2.98963 11.21311,-3.3834 1.2062,-0.12878 3.78297,-0.69581 5.72615,-1.26008 1.94318,-0.564264 3.62875,-0.930245 3.74571,-0.813287 0.40016,0.400157 -6.47707,3.406887 -12.77476,5.585137 -7.05803,2.44124 -9.206219,3.50207 -10.418463,5.1449 -0.779222,1.05599 -0.83085,1.62048 -0.802331,8.77237 0.05719,14.3423 1.639112,18.3154 7.037834,17.676 1.79636,-0.21275 3.45181,-0.74507 13.23382,-4.25543 4.23053,-1.51816 8.47774,-1.93037 12.35388,-1.19899 1.45352,0.27426 2.72902,0.63821 2.83443,0.80878 0.22764,0.36833 0.21883,0.37065 -8.17645,2.15772 -8.65728,1.84283 -13.08024,3.0661 -18.26069,5.05037 -2.81689,1.07896 -5.18329,1.7083 -6.958859,1.85071 l -2.690487,0.21578 z"
       id="path12" />
    <path
       style="fill:#000000;stroke-width:0.398744"
       d="m 196.78037,131.79719 c 0,-0.63782 3.95549,-5.18856 9.36845,-10.77826 7.63509,-7.8844 8.97548,-9.83338 8.97231,-13.04607 -0.003,-3.29044 -1.85998,-4.93163 -10.45982,-9.245549 -6.80444,-3.413304 -8.2284,-4.695162 -8.56862,-7.713553 -0.49335,-4.376983 5.13278,-9.511668 11.77565,-10.747038 4.32236,-0.803828 10.38372,0.948644 12.47451,3.606653 1.54687,1.966521 0.53289,4.831412 -2.19763,6.209174 -1.35814,0.685289 -2.33763,0.324271 -3.5964,-1.325552 -0.43357,-0.568271 -1.46741,-1.725887 -2.29741,-2.572479 -1.27257,-1.298014 -1.68141,-1.496663 -2.60858,-1.26748 -1.4169,0.350236 -3.2413,2.058595 -3.93852,3.687999 -1.12743,2.634819 0.83856,4.345373 8.62082,7.500766 2.52206,1.022594 5.32355,2.284496 6.22553,2.804228 2.17338,1.252321 3.9944,3.381461 4.58873,5.365141 1.83363,6.12013 -6.09828,15.02199 -21.58036,24.21932 -5.11445,3.0383 -6.77866,3.84914 -6.77866,3.3027 z m 21.33756,-14.84404 c 1.05529,-1.25414 1.32108,-2.71386 0.4937,-2.71138 -1.00696,0.003 -3.076,1.59719 -3.31648,2.55532 -0.52536,2.0932 1.11641,2.18397 2.82278,0.15606 z"
       id="path13" />
    <path
       style="fill:#000000;stroke-width:0.398744"
       d="m 248.70988,113.7972 c -4.85188,-0.80816 -11.81513,-4.31724 -14.21483,-7.16346 -2.99082,-3.54732 -2.91386,-5.98247 0.33917,-10.732422 1.25458,-1.831884 3.16744,-5.097031 4.2508,-7.255881 1.08336,-2.158851 2.61398,-4.638274 3.40138,-5.509831 2.65142,-2.934798 7.07802,-4.530228 18.21931,-6.566578 8.11918,-1.483984 10.09283,-1.296564 11.06512,1.050757 0.50688,1.22371 0.28592,4.64476 -0.41989,6.501195 -0.64676,1.701104 -1.446,1.644455 -4.31275,-0.30568 -2.91082,-1.98012 -4.87996,-2.665157 -7.67085,-2.668586 -8.13747,-0.01 -19.34133,8.192926 -21.2019,15.523007 -0.95842,3.775869 1.00079,7.606429 4.73931,9.266069 2.11572,0.93923 9.97145,2.72329 11.96888,2.71817 3.04365,-0.008 7.63058,-2.76834 12.7249,-7.65818 l 3.23098,-3.101293 -0.19144,1.992357 c -0.20457,2.128986 0.0173,2.379736 1.17699,1.330226 1.47947,-1.338902 1.10088,-0.17824 -0.63826,1.95674 -2.88887,3.54639 -7.29456,7.31234 -10.35261,8.84935 -4.16384,2.09278 -7.37636,2.56322 -12.11431,1.77404 z"
       id="path14" />
    <path
       style="fill:#000000;stroke-width:0.398744"
       d="m 284.5667,111.41419 c -0.85505,-2.24889 -2.22142,-21.014565 -1.84109,-25.285394 0.0781,-0.877238 0.23599,-2.823732 0.35082,-4.325544 0.50494,-6.60411 3.50367,-9.473998 11.32438,-10.837816 6.39825,-1.115761 9.89793,-0.661844 12.37099,1.604549 1.35951,1.245902 1.45736,1.492236 1.45349,3.659247 -0.007,4.055265 -2.25844,7.153023 -8.73211,12.015883 -5.64776,4.24245 -6.2297,6.47532 -2.40375,9.222914 3.17795,2.282231 7.55548,10.125341 6.1397,11.000341 -0.6139,0.37942 -1.42958,-0.44636 -2.37981,-2.40927 -1.6549,-3.41856 -6.22493,-6.408779 -10.46251,-6.845716 -1.67524,-0.172735 -2.27995,-0.06581 -3.02043,0.534067 -0.84567,0.685089 -0.95614,1.206909 -1.27572,6.025759 -0.19243,2.90165 -0.52578,5.59005 -0.74078,5.97422 -0.34993,0.62527 -0.43203,0.59033 -0.78318,-0.33324 z m 6.72707,-20.570943 c 2.0266,-1.374365 9.18337,-8.227935 10.58308,-10.134719 3.00812,-4.097874 1.54999,-6.094557 -4.2816,-5.863011 -2.65455,0.1054 -3.28524,0.281099 -4.77993,1.331609 -2.71355,1.907151 -4.0504,4.916638 -4.25423,9.576991 -0.24927,5.699389 0.30652,6.734456 2.73268,5.08913 z m -6.40491,-2.495143 c 0.56514,-1.055966 0.51754,-1.621191 -0.13652,-1.621191 -0.78768,0 -1.57412,1.080605 -1.30218,1.789271 0.31814,0.829044 0.9442,0.755902 1.4387,-0.16808 z"
       id="path15" />
    <path
       style="fill:#000000;stroke-width:0.398744"
       d="m 322.66125,101.56555 c -1.15751,-1.27904 -1.84783,-3.538948 -2.66757,-8.732885 -0.44348,-2.80989 -0.90239,-5.647196 -1.01981,-6.305125 l -0.21348,-1.196233 0.97057,1.147381 c 0.53382,0.631059 1.14151,1.041741 1.35043,0.912625 0.20891,-0.129116 0.49879,-3.067809 0.64417,-6.530431 0.14539,-3.462621 0.37733,-7.317952 0.51544,-8.567402 0.24419,-2.209237 0.22212,-2.279 -0.80229,-2.536109 -1.78186,-0.44722 -2.97513,0.665559 -3.11891,2.908537 l -0.12175,1.8993 -1.09655,-1.078423 c -1.70566,-1.677473 -1.53246,-3.614688 0.49569,-5.544017 1.76756,-1.681438 3.37357,-2.149593 6.38239,-1.860483 4.31888,0.414989 4.91762,2.142481 2.58297,7.45244 -1.82867,4.159139 -2.15655,6.913597 -2.17165,18.243567 -0.0143,10.748758 -0.1524,11.530098 -1.72965,9.787258 z"
       id="path16" />
    <path
       style="fill:#000000;stroke-width:0.398744"
       d="m 333.94846,105.4872 c 0,-0.64731 0.73283,-3.47342 1.62852,-6.280225 2.36544,-7.41256 3.18664,-12.102679 3.19687,-18.258422 0.006,-3.656569 -0.17823,-5.775393 -0.62463,-7.180834 -1.71119,-5.387525 -1.57038,-7.852535 0.58905,-10.311996 2.15204,-2.451037 8.20139,-4.814476 14.93575,-5.835291 6.0004,-0.909559 9.77682,0.962174 9.20152,4.560615 -0.3752,2.346831 -1.72879,4.410944 -5.78832,8.826671 -1.98016,2.153905 -3.60029,4.059777 -3.60029,4.235271 0,0.477859 0.90133,0.387754 2.79121,-0.279037 3.17307,-1.119523 5.29619,-0.727784 7.75472,1.430827 4.18574,3.675129 3.92444,8.402037 -0.69399,12.554402 -2.44854,2.201449 -6.15175,4.128063 -11.53908,6.003269 -4.95,1.722983 -6.24532,2.539876 -10.80794,6.81603 -5.34088,5.00555 -7.04339,5.90443 -7.04339,3.71872 z m 19.72091,-15.92705 c 0.88655,-0.395765 2.46423,-1.636048 3.50595,-2.756184 1.58555,-1.7049 1.89404,-2.289107 1.89404,-3.58687 0,-3.537265 -5.03543,-4.892865 -10.56778,-2.844981 -4.1298,1.528707 -5.54704,3.065855 -4.00594,4.344857 0.31822,0.264095 0.69534,1.25883 0.83806,2.210522 0.26764,1.784782 1.33519,3.140681 2.77018,3.518443 1.219,0.3209 3.77294,-0.08558 5.56549,-0.885787 z m 8.08903,-2.007577 c 2.21917,-1.607562 2.89338,-2.706295 2.89338,-4.715263 0,-3.604464 -1.9056,-5.953513 -3.81481,-4.70255 -1.10227,0.72223 -1.26284,2.071559 -0.38469,3.232577 0.81021,1.0712 0.75132,2.573157 -0.18669,4.761459 -1.29224,3.014668 -1.03804,3.257113 1.49281,1.423777 z M 347.53073,74.328602 c 3.54852,-1.846145 6.47064,-4.241436 7.42858,-6.089276 0.93932,-1.811926 0.91489,-5.537543 -0.0433,-6.596276 -2.28265,-2.522299 -8.28406,0.610453 -10.85749,5.66764 -1.05712,2.077386 -1.77292,6.465276 -1.27449,7.81265 0.43788,1.183697 1.18395,1.058781 4.74665,-0.794738 z"
       id="path17" />
    <path
       style="fill:#000000;stroke-width:0.398744"
       d="m 381.52981,90.760101 c -3.52953,-1.647265 -4.18469,-4.05603 -4.14347,-15.233789 0.0293,-7.936309 -0.0464,-8.916723 -0.96835,-12.551305 -1.33803,-5.27467 -1.3229,-7.038375 0.0698,-8.133875 1.35512,-1.065934 2.08097,-0.921067 2.9278,0.584343 0.89979,1.599528 1.87964,1.465635 7.16713,-0.979363 4.42993,-2.048452 6.13818,-2.526706 11.52045,-3.225351 1.8404,-0.238894 4.32001,-0.798708 5.51025,-1.244032 1.19023,-0.445324 2.25697,-0.716775 2.37052,-0.603225 0.55512,0.555126 -4.90529,2.919059 -14.41691,6.241399 -2.63172,0.919238 -5.45281,2.104219 -6.26911,2.633292 -2.57355,1.668022 -2.79478,2.531583 -2.7406,10.698077 0.0782,11.787866 0.87775,16.072249 3.22791,17.296972 1.5356,0.800233 4.60153,0.286928 10.48192,-1.754901 10.64431,-3.695992 11.15799,-3.811447 16.23396,-3.648721 2.52206,0.08085 4.9257,0.338858 5.34144,0.573346 0.66188,0.373328 0.51314,0.504591 -1.19624,1.05564 -1.07366,0.346113 -4.4383,1.09586 -7.47698,1.666103 -6.21132,1.165628 -12.82191,3.070702 -18.92822,5.45484 -5.0982,1.990528 -6.53942,2.184186 -8.7113,1.17055 z"
       id="path18" />
    <path
       style="fill:#000000;stroke-width:0.398744"
       d="m 448.60742,72.829567 c 0.20834,-0.18702 2.07899,-1.757076 4.157,-3.489014 4.79942,-4.000119 5.71321,-5.004596 7.18489,-7.897914 2.91356,-5.728037 0.40905,-11.19314 -6.35845,-13.874795 -3.09216,-1.225285 -11.22362,-1.225085 -15.365,3.77e-4 -3.08845,0.913894 -3.71982,0.875101 -1.81224,-0.11135 3.0132,-1.558187 14.19861,-3.210353 19.7588,-2.918518 10.62153,0.557488 12.81109,9.68619 4.70865,19.631353 -2.15014,2.639147 -6.29555,5.956005 -9.73489,7.789152 -2.21828,1.182332 -3.29873,1.552888 -2.53876,0.870709 z"
       id="path19" />
    <path
       style="fill:#000000;stroke-width:0.398744"
       d="m 438.22716,84.23476 c -0.092,-0.274137 -0.22096,-0.947018 -0.28654,-1.495292 -0.0818,-0.683907 -0.4009,-1.036863 -1.01642,-1.12428 -1.23469,-0.175355 -1.12361,-0.906038 0.34817,-2.290132 1.80196,-1.694598 2.34284,-3.197113 1.92937,-5.35961 -0.18852,-0.985988 -0.53444,-4.932817 -0.76872,-8.770732 -0.30735,-5.035066 -0.66236,-7.734716 -1.27499,-9.695628 L 436.309,52.781485 437.10577,51.7143 c 0.43822,-0.586952 1.38696,-1.23645 2.1083,-1.443329 1.13787,-0.326336 1.40969,-0.254922 2.05283,0.539319 0.90907,1.12265 0.95011,2.855372 0.1063,4.487132 -1.56729,3.03081 -1.56381,18.475767 0.005,20.869626 1.60261,2.4459 1.06376,6.919075 -0.95954,7.965363 -1.4142,0.731309 -1.97135,0.757333 -2.19121,0.102349 z"
       id="path20" />
    <path
       style="fill:#000000;stroke-width:0.398744"
       d="m 417.8478,94.499519 c -0.31114,-1.23968 0.43116,-3.12162 1.13863,-2.886725 0.78383,0.26025 1.32782,2.22522 0.8334,3.010362 -0.70067,1.112663 -1.67711,1.051445 -1.97203,-0.123637 z"
       id="path21" />
    <path
       style="fill:#000000;stroke-width:0.398744"
       d="m 537.77601,65.962352 c -0.24064,-0.751166 -1.62166,-7.64598 -3.06893,-15.32181 -1.44727,-7.67583 -2.89854,-14.673795 -3.22505,-15.551033 -0.3265,-0.877237 -1.25756,-2.468765 -2.06903,-3.536727 -4.36382,-5.743219 -4.95131,-7.014046 -4.95489,-10.718158 -0.003,-3.011083 1.72218,-4.739195 3.56305,-3.569271 1.63195,1.037159 6.65574,18.120412 8.08526,27.493709 0.55319,3.627253 1.09575,4.103325 2.71369,2.381113 1.3894,-1.478952 2.131,-4.185727 2.4912,-9.092735 0.36566,-4.981306 0.89615,-6.746003 2.02794,-6.746003 1.21122,0 1.60562,1.453738 1.98633,7.321439 0.20119,3.100765 0.53373,6.131201 0.73898,6.734302 0.35728,1.04979 0.3172,1.096548 -0.93987,1.096548 -1.41032,0 -2.14078,0.613749 -3.18535,2.676407 -1.10647,2.184876 -2.20297,7.636324 -2.48508,12.354922 -0.30249,5.05958 -0.94369,6.770205 -1.67825,4.477297 z"
       id="path22" />
    <path
       style="fill:#000000;stroke-width:0.398744"
       d="m 549.47353,54.689616 c -0.62799,-0.958446 -2.66807,-5.917806 -2.49329,-6.061118 0.0534,-0.04379 0.6733,-0.372599 1.37752,-0.730676 1.81209,-0.921386 2.97977,-3.16365 5.4774,-10.518099 4.22717,-12.447157 10.40393,-22.536928 18.23547,-29.7877368 4.25297,-3.9375954 9.89686,-7.54952255 9.89686,-6.3337047 0,0.5170766 -2.24103,3.1996277 -5.94423,7.1153514 -5.73525,6.0643791 -13.63094,17.0901271 -16.99001,23.7252931 -1.54199,3.045884 -5.07567,12.650526 -6.39699,17.387175 -1.04159,3.733851 -1.97005,6.138746 -2.37,6.138746 -0.099,0 -0.45569,-0.420854 -0.79273,-0.935231 z"
       id="path23" />
    <path
       style="fill:#000000;stroke-width:0.398744"
       d="m 574.74654,58.493303 c -1.52911,-1.366258 -1.5441,-1.870781 -0.21558,-7.254644 0.56822,-2.302749 1.49443,-7.326116 2.05824,-11.163038 0.56381,-3.836921 1.39037,-8.412513 1.83681,-10.167982 2.056,-8.084522 5.40899,-13.75849 8.13048,-13.75849 2.64255,0 5.26803,8.504099 6.18497,20.033491 0.71173,8.94915 -0.32959,15.056019 -2.56729,15.056019 -1.25867,0 -1.37212,-0.470065 -0.96243,-3.987445 0.69437,-5.961373 -0.53267,-8.449659 -4.79026,-9.714027 -3.98299,-1.182822 -5.32182,0.352779 -3.99647,4.583837 0.49085,1.566976 0.69904,2.996126 0.54404,3.734585 -0.13809,0.657928 -0.40053,3.368427 -0.5832,6.023331 -0.20632,2.998756 -0.56822,5.283673 -0.95547,6.032531 -1.0594,2.048653 -2.80017,2.264892 -4.68384,0.581832 z m 10.91819,-24.261808 c 2.92754,-0.893417 3.53696,-1.223194 3.73757,-2.022496 0.37148,-1.480062 -0.0538,-4.064798 -1.09917,-6.680295 -0.74302,-1.859051 -1.20449,-2.471877 -2.09758,-2.785536 -1.03375,-0.36306 -1.25201,-0.273944 -2.24645,0.917247 -1.10394,1.322342 -2.35395,4.790593 -3.16116,8.770893 -0.67448,3.325821 -0.42941,3.416471 4.86679,1.800187 z"
       id="path24" />
    <path
       style="fill:#000000;stroke-width:0.398744"
       d="m 604.4204,59.113861 c -0.39393,-0.608651 -0.22689,-21.312188 0.20397,-25.28158 0.21506,-1.981226 0.14578,-3.564169 -0.22685,-5.183677 -0.29504,-1.28231 -0.63807,-3.443745 -0.76229,-4.80319 -0.18974,-2.076627 -0.0901,-2.691278 0.62308,-3.845307 0.46691,-0.755474 1.45638,-1.661845 2.19882,-2.014157 1.70012,-0.80676 5.14559,-0.848963 5.79129,-0.07094 0.51757,0.623633 0.43015,1.445711 -1.3599,12.788308 -1.14504,7.255462 -1.28688,11.920806 -0.42515,13.983212 1.42403,3.408199 5.72136,3.145099 15.16663,-0.928565 4.86995,-2.100366 7.46337,-2.94774 7.27457,-2.376888 -0.17308,0.523299 -0.86244,0.911307 -4.28398,2.41126 -1.2062,0.528782 -3.53886,1.968895 -5.18368,3.200253 -1.64482,1.231358 -4.19062,2.701887 -5.65734,3.267844 -3.08669,1.19105 -4.84795,2.398169 -9.38767,6.434058 -1.80513,1.604787 -3.3646,2.917797 -3.46549,2.917797 -0.10088,0 -0.32859,-0.224294 -0.50601,-0.498431 z M 618.42678,48.48923 c 0.12134,-0.196329 -0.0302,-0.453209 -0.33675,-0.570844 -0.71556,-0.274587 -2.22926,0.116232 -2.22926,0.575568 0,0.461946 2.28019,0.457748 2.56601,-0.0047 z"
       id="path25" />
    <path
       style="fill:#000000;stroke-width:0.398744"
       d="m 643.79384,50.540856 c -0.62083,-2.235519 -0.50492,-14.468003 0.20037,-21.144795 0.68178,-6.454218 0.60136,-7.472546 -0.83344,-10.554386 -0.53629,-1.151925 -0.97616,-2.542997 -0.97749,-3.09127 -0.007,-2.788504 3.47333,-5.261576 7.51376,-5.339599 2.17946,-0.04209 2.25411,-0.0085 2.37804,1.071427 0.0704,0.613182 -0.35996,3.93273 -0.95629,7.376771 -0.71421,4.124884 -1.09807,7.82682 -1.1248,10.847456 -0.0366,4.139541 0.0564,4.779482 0.95628,6.579283 0.8964,1.792793 1.11742,1.982522 2.1931,1.882587 0.92245,-0.0857 1.05934,-0.01725 0.59812,0.299058 -1.08373,0.743231 0.38445,1.264238 3.04068,1.079036 1.86432,-0.129987 3.81606,-0.758705 8.24435,-2.655764 6.47802,-2.77516 8.57994,-3.040555 3.61229,-0.456101 -1.77785,0.924937 -3.92812,2.266613 -4.77838,2.981501 -2.58723,2.175298 -3.94871,3.006906 -6.86729,4.194633 -2.98525,1.214856 -7.07275,3.942436 -9.03345,6.028002 -1.04294,1.109361 -2.95035,2.397453 -3.55015,2.397453 -0.11024,0 -0.3873,-0.672882 -0.6157,-1.495292 z m 14.36729,-9.071436 c 0.005,-0.219309 -0.28044,-0.458778 -0.6338,-0.532154 -0.93423,-0.193992 -1.88524,0.258273 -1.58037,0.751562 0.32163,0.520397 2.20215,0.334052 2.21417,-0.219408 z"
       id="path26" />
    <path
       style="fill:#000000;stroke-width:0.398744"
       d=""
       id="path27" />
    <path
       style="fill:#000000;stroke-width:0.398744"
       d="m 320.26851,81.608621 c -0.76171,-1.726453 -0.96459,-4.392796 -0.23948,-3.147269 0.22612,0.388404 0.57954,0.602108 0.78537,0.474898 0.21601,-0.133502 0.37423,0.705893 0.37423,1.985336 0,1.219144 -0.0552,2.216627 -0.12263,2.216627 -0.0674,0 -0.42632,-0.688316 -0.79749,-1.529592 z"
       id="path28" />
    <path
       style="fill:#000000;stroke-width:0.398744"
       d="m 320.25254,81.078512 c -0.34891,-1.303085 -0.31906,-1.927744 0.0921,-1.927744 0.46689,0 0.80036,1.817862 0.44033,2.400398 -0.17734,0.286939 -0.37637,0.110258 -0.53245,-0.472654 z"
       id="path29" />
    <path
       style="fill:#000000;stroke-width:0.398744"
       d=""
       id="path30" />
    <path
       style="fill:#000000;stroke-width:0.398744"
       d="m 322.67379,101.18067 c -1.00322,-1.10855 -1.44331,-2.629559 -2.49406,-8.619837 -1.18541,-6.757983 -1.17824,-6.531315 -0.17791,-5.626021 0.49727,0.450017 0.94917,0.587985 1.17763,0.359531 0.42727,-0.427272 1.40605,-16.216712 1.061,-17.115889 -0.31903,-0.831395 -2.38233,-0.753205 -3.17278,0.120236 -0.35727,0.394783 -0.80211,1.426534 -0.98853,2.29278 l -0.33894,1.574993 -0.86613,-1.395605 c -1.06045,-1.708721 -1.06384,-1.868832 -0.0738,-3.492659 1.25296,-2.055019 2.9773,-2.884972 5.98332,-2.879883 4.96449,0.0084 5.75609,1.514577 3.62093,6.889538 -1.53153,3.855395 -2.0188,6.898191 -2.0244,12.64157 -0.006,6.570138 -0.47643,15.949776 -0.79926,15.949776 -0.15121,0 -0.5594,-0.31434 -0.90709,-0.69853 z"
       id="path31" />
    <path
       style="fill:#000000;stroke-width:0.398744"
       d=""
       id="path32" />
  </g>
</svg>
