<?xml version="1.0" encoding="UTF-8" standalone="no"?>
<!-- Created with Inkscape (http://www.inkscape.org/) -->

<svg
   version="1.1"
   id="svg1"
   width="511"
   height="130"
   viewBox="0 0 511 130"
   sodipodi:docname="Scribed-Bricks_solidLogo.svg"
   inkscape:version="1.3 (0e150ed6c4, 2023-07-21)"
   xmlns:inkscape="http://www.inkscape.org/namespaces/inkscape"
   xmlns:sodipodi="http://sodipodi.sourceforge.net/DTD/sodipodi-0.dtd"
   xmlns="http://www.w3.org/2000/svg"
   xmlns:svg="http://www.w3.org/2000/svg">
  <defs
     id="defs1" />
  <sodipodi:namedview
     id="namedview1"
     pagecolor="#ffffff"
     bordercolor="#000000"
     borderopacity="0.25"
     inkscape:showpageshadow="2"
     inkscape:pageopacity="0.0"
     inkscape:pagecheckerboard="0"
     inkscape:deskcolor="#d1d1d1"
     inkscape:zoom="2.3424658"
     inkscape:cx="255.5"
     inkscape:cy="65.102339"
     inkscape:window-width="2400"
     inkscape:window-height="1261"
     inkscape:window-x="2391"
     inkscape:window-y="-9"
     inkscape:window-maximized="1"
     inkscape:current-layer="g1" />
  <g
     inkscape:groupmode="layer"
     inkscape:label="Image"
     id="g1">
    <path
       style="fill:#181818;stroke:none"
       d="m 460,42.426897 h 1 l 6,-18 10,13 -4.16666,-18 L 482,2.4268971 c -6.89948,3.49313 -13.51352,12.1702599 -17,18.9999999 h -1 l 3,-19.9999999 c -10.54932,4.90823 -7,30.5445399 -7,40.9999999 m 27,1 c 7.0881,-2.96667 26.39276,-12.72572 21.64197,-22.95601 C 505.54144,13.794237 495.72559,15.970177 496,7.4268971 c 2.21732,1.04422 9.25494,6.3920999 10.0787,0.89507 1.32035,-8.81078002 -16.10632,-4.91721 -18.3171,1.14429 -3.17203,8.6970199 12.00866,7.4475599 12.52621,14.9760799 0.48316,7.02818 -10.47809,12.95936 -13.28781,18.98456 m -37,-12 -2,-2 c -4.32382,3.03383 -8.00897,7.54032 -13,9.53936 -5.57806,2.23416 -17.59482,-1.25875 -17.42746,-8.54013 0.1601,-6.96492 13.42078,-15.664 20.00308,-14.95987 3.35248,0.35862 6.47666,3.46366 9.42438,4.96064 4.5715,-9.51478 -2.55151,-12.1865499 -11,-9.98533 -10.03979,2.61583 -20.60095,6.49754 -23.80634,17.70061 -3.22656,11.27711 7.38822,18.102015 17.80634,18.097995 8.64661,-0.0033 17.30078,-6.873395 20,-14.813275 M 319,73.426901 c 6.32275,-1.774704 9.509,-7.660278 15,-10.925156 6.82935,-4.06063 16.0629,-3.824821 21.34723,-10.37577 C 363.04016,42.589117 354.1286,33.631477 344,35.426897 c 3.52719,-3.53695 9.94226,-8.35843 9.63812,-13.95678 -0.61474,-11.31589 -24.94693,-3.77061 -29.20447,1.17052 -4.93237,5.7243 0.0157,13.37053 0.47608,19.78626 0.78436,10.930622 -5.68094,20.260082 -5.90973,31.000004 m 83,-21 c 4.64755,-7.758347 1.36768,-20.886784 4.02625,-29.995374 0.71737,-2.45785 0.6531,-4.86388 -2.17518,-5.68595 -3.57003,-1.03769 -8.82022,0.37877 -9.11883,4.70061 -0.54517,7.89021 2.76382,24.34665 7.26776,30.980714 M 331,37.426897 c -1.66818,-5.80851 2.05832,-18.63094 10.6821,-16.18287 6.66318,1.89151 -1.20676,10.76231 -3.69599,12.36729 -2.24926,1.45027 -4.56878,2.68563 -6.98611,3.81558 m 69,-17 v 16 h -1 l -1,-16 h 2 m -36,41.000004 c 5.64594,-1.651535 2.24899,-6.925117 4.88889,-10.763885 3.92034,-5.700676 12.27389,5.592842 15.11111,7.763885 0.0516,-5.373627 -7.82443,-11.86763 -6.65433,-15.945984 1.7923,-6.24699 14.12561,-8.24561 11.01081,-16.94522 -2.97953,-8.3218 -19.79642,-3.49959 -23.26697,1.99615 C 360.03024,35.543387 364,52.13735 364,61.426901 m 53,-39.000004 -1,1 1,-1 m -1,2 -2,4 h -1 l 3,-4 m -46,17 c 0.003,-4.09816 -0.58743,-9.34705 2.51389,-12.56636 1.83679,-1.90667 7.52243,-3.88298 9.32486,-0.83101 2.63534,4.46231 -8.71805,11.84582 -11.83875,13.39737 m 134,-12 v 2 h -2 l 2,-2 m -161,6.33334 0.33334,0.33333 c -0.4935,0.16449 -1.10675,-0.33333 -0.33334,-0.33333 m 23,1.66666 -1,1 1,-1 m -13,2 c 1.10242,4.645504 1.57016,8.479923 -3,11.000004 l 1,-11.000004 h 2 m -59,9.000004 -1,-5.000004 5,-2 c -7.26517,-3.02014 -27.32587,0.91757 -34.99536,3.394291 -3.16162,1.020981 -7.33899,4.427521 -6.0733,8.287041 1.20355,3.670036 6.66232,1.371742 9.06866,0.662811 9.15891,-2.698295 18.87811,-2.013534 28,-5.344139 m 39,5 -1,-9 c 3.21808,-0.860294 6.61273,-2.484214 9.99536,-2.369594 5.66205,0.19184 7.18515,5.268489 2.85651,8.855701 -3.32181,2.752838 -7.80451,2.502724 -11.85187,2.513893 m -110,-1 c 6.12036,-1.623314 26.87552,-6.71302 23.25694,7 -1.92074,7.278915 -9.11699,11.244156 -13.25694,17 3.87909,-1.671524 7.69801,-3.704193 10.99614,-6.37886 2.30064,-1.865738 4.46994,-4.063683 5.9946,-6.62114 10.86671,-18.227814 -20.66484,-21.828114 -26.99074,-11 m 72,-6 v 1 h 4 l -4,-1 m -122,12 -1,-3 c -5.38507,2.971786 -4.21489,31.658127 2.05864,34.781631 4.17329,2.077836 9.06828,-0.854164 12.94136,-2.321754 7.59123,-2.876488 15.66629,-2.785728 23,-6.459877 v -1 l -33,5 c -1.01418,-6.089081 -4.47777,-18.642807 0.3179,-23.606483 5.56156,-5.756394 15.47711,-5.271622 21.6821,-10.393517 -9.02695,-0.598808 -17.9026,3.611778 -26,7 m 48,26 5,-3 v 4 c 4.55286,-1.673767 4.8967,-4.597488 6,-9 -8.17731,-5.301399 1.54974,-16.717598 -2.28241,-22.377319 -1.45163,-2.143914 -4.30887,-0.514244 -4.73996,1.526237 -1.26854,6.004425 2.47801,13.539482 1.53857,19.81173 -0.50532,3.373878 -3.8016,6.183013 -5.5162,9.039352 M 131,105.4269 c 4.51422,-3.17939 8.06149,-7.583014 13,-10.175155 4.77048,-2.503952 10.82065,-2.926834 14.56636,-7.154319 C 165.884,79.838598 156.96902,73.590414 149,74.426901 c 1.68661,-1.296661 3.37386,-2.528786 4.81096,-4.114967 11.99596,-13.240403 -11.24854,-13.51162 -18.58257,-7.236115 -2.28076,1.951584 -3.07261,4.425697 -2.67053,7.351082 0.83566,6.079849 2.15419,11.774002 1.11652,18 C 132.67686,94.411932 129.31403,99.28005 131,105.4269 m 8,-29.999999 c 0.0342,-3.780869 2.71567,-16.193657 9.39275,-11.867279 6.56858,4.256081 -6.57467,10.975098 -9.39275,11.867279 m 39,-6 v 2 l 1,1 20,-8 c -6.49564,-4.895653 -15.46228,1.068581 -21,5 M 122,101.4269 c 0.10447,-5.088607 0.25208,-9.910155 0.0393,-14.999999 -0.25118,-6.009857 3.47431,-11.411049 3.25231,-16.855713 -0.21289,-5.22142 -8.92008,-4.432991 -10.95447,-0.915893 -1.92266,3.323928 0.67602,6.444091 1.11806,9.771606 1.00618,7.574188 -0.50168,18.230423 6.54475,22.999999 m -39,10 h 3 l 2,-13.999999 16,9.999999 C 102.57836,104.01316 94.726809,94.993231 95.612659,92.006376 97.406009,85.959639 111.08051,83.273863 106.73071,74.574278 103.08218,67.277228 87.514442,71.062887 83.938271,76.559622 78.574432,84.804068 83,101.94558 83,111.4269 m 36,-40.999999 v 15 h -1 l -1,-15 h 2 m -77,18 -2,-1 c -7.332958,13.166399 -0.153694,26.008119 16,24.776229 8.384758,-0.63942 14.025627,-6.67186 19,-12.776229 v -1 l -2,-3 c -4.309067,2.99971 -8.09594,7.455849 -13,9.514659 C 54.232418,107.36289 41.261639,103.2927 42.542439,95.427672 44.930912,80.76074 63.04599,81.998327 72,86.426901 c 7.836189,-18.604797 -25.191181,-8.901611 -30,2 m 60,-11 -13,14 c 0,-8.919533 1.564445,-18.581802 13,-14 m 54,1 h 1 c 1.02594,3.579826 1.1297,5.742111 -2,8 l 1,-8 M 2,129.4269 C 11.443627,126.64905 35.985313,113.2613 29.423611,100.53183 26.602427,95.058844 14.662997,95.093298 13.76929,89.382147 12.768674,82.987806 29.960384,95.602614 26.337963,84.519491 22.927895,74.086081 4.0955875,80.984358 2.4922845,89.423819 0.67758247,98.976034 18.475933,97.036406 19.337963,106.42767 20.068495,114.38635 5.5388355,122.60523 2,129.4269 m 139,-40.999999 -1,-7 c 14.17336,-3.238281 14.70081,6.953117 1,7 m 78,-4 1,1 -1,-1 m -3.33333,2.333328 0.66666,0.333344 -0.66666,-0.333344 M 208,89.426901 v 6 h 1 l 1,-6 h -2 m -167,1 -2,4 h -1 l 3,-4 m 32,7 -1,1 1,-1 m -49,14.999999 -3,3 1,-3 z"
       id="path2765" />
  </g>
</svg>
